<?xml version="1.0" encoding="UTF-8"?>
<svg width="301px" height="233px" viewBox="0 0 301 233" version="1.1" xmlns="http://www.w3.org/2000/svg" xmlns:xlink="http://www.w3.org/1999/xlink">
    <!-- Generator: Sketch 49.2 (51160) - http://www.bohemiancoding.com/sketch -->
    <title>Group 7</title>
    <desc>Created with Sketch.</desc>
    <defs></defs>
    <g id="Economic-Model" stroke="none" stroke-width="1" fill="none" fill-rule="evenodd" stroke-linecap="round">
        <g transform="translate(-228.000000, -2462.000000)" id="Group-7" stroke="#000000">
            <g transform="translate(229.000000, 2461.000000)">
                <path d="M238.882387,141.502492 C244.235727,139.169674 247.47566,136.124802 247.47566,132.793814 C247.47566,125.451299 231.732951,119.499014 212.313336,119.499014 C192.893721,119.499014 177.151013,125.451299 177.151013,132.793814 C177.151013,136.291875 180.724108,139.474398 186.565619,141.848086" id="Oval-Copy-3" stroke-width="1.2" transform="translate(212.313336, 130.673550) scale(1, -1) translate(-212.313336, -130.673550) "></path>
                <path d="M247.47566,146.925227 C247.47566,138.256585 231.732951,129.146195 212.313336,129.146195 C192.893721,129.146195 177.151013,138.256585 177.151013,146.925227" id="Oval-Copy-7" stroke-width="1.2" transform="translate(212.313336, 138.035711) scale(1, -1) translate(-212.313336, -138.035711) "></path>
                <g id="Group-16-Copy-10" transform="translate(212.556415, 125.483979) scale(-1, 1) rotate(-10.000000) translate(-212.556415, -125.483979) translate(189.056415, 113.483979)">
                    <path d="M23.2872351,17.6097079 C36.1484199,17.6097079 46.5744702,13.6676405 46.5744702,8.80485396 C46.5744702,3.94206739 36.1484199,4.26325641e-14 23.2872351,4.26325641e-14 C10.4260503,4.26325641e-14 0,3.94206739 0,8.80485396 C0,11.1215432 2.36638259,13.2292584 6.23508703,14.8013" id="Oval-Copy-3" stroke-width="1.2" transform="translate(23.287235, 8.804854) scale(1, -1) translate(-23.287235, -8.804854) "></path>
                    <path d="M24.5981865,5.65472767 L31.4269805,14.1162536" id="Path-9" transform="translate(28.012584, 9.885491) rotate(110.000000) translate(-28.012584, -9.885491) "></path>
                    <path d="M23.752059,6.83561168 L23.6982006,14.1176115 C23.6941036,14.671562 23.2417166,15.1173062 22.6877662,15.1132092 C22.3484612,15.1106996 22.0334275,14.9368175 21.8504604,14.6510603 L20.8015948,13.0129463 C20.2958883,12.2231361 20.0225067,11.30702 20.0126748,10.3692341 L19.946093,4.018558" id="Path-9-Copy-9" transform="translate(21.849076, 9.565898) rotate(110.000000) translate(-21.849076, -9.565898) "></path>
                    <path d="M30.1307568,8.14013045 L30.1660188,13.0688195 C30.1696741,13.5797343 29.758459,13.9968759 29.2475441,14.0005312 C28.9216407,14.0028629 28.6185533,13.8335359 28.4496823,13.5547869 L28.4496823,13.5547869 C27.3100094,11.6735716 26.6917158,9.52285811 26.6583236,7.32360594 L26.5786513,2.07629277" id="Path-9-Copy-10" transform="translate(28.372347, 8.038424) rotate(110.000000) translate(-28.372347, -8.038424) "></path>
                    <path d="M32.4456248,5.73870704 L34.0754375,7.75820019" id="Path-9-Copy-5" transform="translate(33.260531, 6.748454) rotate(110.000000) translate(-33.260531, -6.748454) "></path>
                    <path d="M30.1478672,5.20849403 L31.5652904,6.96481636" id="Path-9-Copy-6" transform="translate(30.856579, 6.086655) rotate(110.000000) translate(-30.856579, -6.086655) "></path>
                    <path d="M18.3556804,10.624141 L19.7014964,12.2917352" id="Path-9-Copy-8" transform="translate(19.028588, 11.457938) rotate(110.000000) translate(-19.028588, -11.457938) "></path>
                    <path d="M16.1298292,9.84472199 L17.5472524,11.6010443" id="Path-9-Copy-7" transform="translate(16.838541, 10.722883) rotate(110.000000) translate(-16.838541, -10.722883) "></path>
                    <path d="M46.5744702,23.2221405 C46.5744702,23.6878867 46.5744702,22.2341616 46.5744702,18.8609652 C46.5744702,13.8011705 36.1484199,9.69939645 23.2872351,9.69939645 C10.4260503,9.69939645 0,13.8011705 0,18.8609652 C0,20.467996 0,21.9217211 0,23.2221405" id="Oval-Copy-13" stroke-width="1.2" transform="translate(23.287235, 16.503147) scale(1, -1) translate(-23.287235, -16.503147) "></path>
                </g>
                <path d="M109.485465,163.941023 C112.997753,161.871961 115.034679,159.410693 115.034679,156.769545 C115.034679,149.42703 99.291971,143.474745 79.872356,143.474745 C60.4527409,143.474745 44.7100325,149.42703 44.7100325,156.769545 C44.7100325,160.267606 49.5705306,164.672839 57.8159788,166.574744" id="Oval-Copy-9" stroke-width="1.2" transform="translate(79.872356, 155.024744) scale(1, -1) translate(-79.872356, -155.024744) "></path>
                <path d="M115.034679,172.16415 C115.034679,163.495509 99.291971,154.385118 79.872356,154.385118 C60.4527409,154.385118 44.7100325,163.495509 44.7100325,172.16415" id="Oval-Copy-8" stroke-width="1.2" transform="translate(79.872356, 163.274634) scale(1, -1) translate(-79.872356, -163.274634) "></path>
                <g id="Group-16-Copy-11" transform="translate(82.185806, 149.980276) scale(-1, 1) rotate(6.000000) translate(-82.185806, -149.980276) translate(58.685806, 137.980276)" stroke-width="1.2">
                    <path d="M23.2872351,17.6097079 C36.1484199,17.6097079 46.5744702,13.6676405 46.5744702,8.80485396 C46.5744702,3.94206739 36.1484199,5.68434189e-14 23.2872351,5.68434189e-14 C10.4260503,5.68434189e-14 -1.42108547e-14,3.94206739 -1.42108547e-14,8.80485396 C-1.42108547e-14,11.1215432 2.36638259,13.2292584 6.23508703,14.8013" id="Oval-Copy-3" transform="translate(23.287235, 8.804854) scale(1, -1) translate(-23.287235, -8.804854) "></path>
                    <g id="Group" transform="translate(21.818334, 9.033599) scale(-1, 1) translate(-21.818334, -9.033599) translate(9.818334, 3.533599)">
                        <ellipse id="Oval-Copy-3" transform="translate(9.807903, 5.403951) rotate(-1.000000) translate(-9.807903, -5.403951) " cx="9.80790297" cy="5.40395149" rx="9.53638498" ry="2.86091549"></ellipse>
                        <path d="M13.9671123,-1.08225202 L13.9671123,-1.08225202 C15.7972378,0.18766306 16.9054499,2.25982174 16.9456194,4.48702403 L16.9984395,7.41564376 C17.0333269,9.34997934 17.9260145,11.1687787 19.4348477,12.3796847" id="Path-9" transform="translate(16.700980, 5.648716) rotate(110.000000) translate(-16.700980, -5.648716) "></path>
                    </g>
                    <path d="M46.5744702,23.2221405 C46.5744702,23.6878867 46.5744702,22.2341616 46.5744702,18.8609652 C46.5744702,13.8011705 36.1484199,9.69939645 23.2872351,9.69939645 C10.4260503,9.69939645 9.9475983e-14,13.8011705 9.9475983e-14,18.8609652 C9.9475983e-14,20.467996 9.9475983e-14,21.9217211 9.9475983e-14,23.2221405" id="Oval-Copy-13" transform="translate(23.287235, 16.503147) scale(1, -1) translate(-23.287235, -16.503147) "></path>
                </g>
                <path d="M216.105318,119.698522 L47.8763363,113.343741" id="Rectangle-4-Copy-27" stroke-width="1.2" stroke-linejoin="round" transform="translate(131.990827, 116.521131) rotate(90.000000) translate(-131.990827, -116.521131) "></path>
                <g id="Group-8" transform="translate(57.894737, 189.473684)" stroke-linejoin="round" stroke-width="1.2">
                    <path d="M69.5345469,59.0054844 L69.5345469,78.9176985 C69.5345469,79.9102779 70.0254965,80.8386045 70.8459003,81.3973099 L99.0403614,100.598094 C99.9533291,101.219836 101.197458,100.983751 101.8192,100.070784 C102.045239,99.7388678 102.166126,99.3465934 102.166126,98.9450193 L102.166126,-65.2176182 C102.166126,-66.3221877 101.270695,-67.2176182 100.166126,-67.2176182 C99.911015,-67.2176182 99.6582597,-67.168811 99.42149,-67.0738287 L71.4175931,-55.8398083 C70.2800878,-55.3834876 69.5345469,-54.2811136 69.5345469,-53.0554926 L69.5345469,-8.83601626" id="Rectangle-4-Copy-32" transform="translate(85.850336, 16.842105) rotate(90.000000) translate(-85.850336, -16.842105) "></path>
                    <path d="M118.947368,94.7368421 L118.947368,-14.8947368 C118.947368,-16.5515911 117.604223,-17.8947368 115.947368,-17.8947368 L108.421053,-17.8947368" id="Rectangle-4-Copy-42" transform="translate(113.684211, 38.421053) rotate(90.000000) translate(-113.684211, -38.421053) "></path>
                    <path d="M29.4736842,13.6842105 L29.4736842,63.3157895 C29.4736842,64.9726437 28.1305385,66.3157895 26.4736842,66.3157895 L23.1578947,66.3157895" id="Rectangle-4-Copy-43" transform="translate(26.315789, 40.000000) rotate(90.000000) translate(-26.315789, -40.000000) "></path>
                </g>
                <path d="M39.1233331,198.384383 L39.1233331,223.74033" id="Rectangle-4-Copy-53" stroke-width="1.2" stroke-linejoin="round" transform="translate(39.123333, 211.062357) rotate(90.000000) translate(-39.123333, -211.062357) "></path>
                <path d="M22.7345694,197.028779 L22.7345694,242.440368" id="Rectangle-4-Copy-52" stroke-width="1.2" stroke-linejoin="round" transform="translate(22.734569, 219.734573) rotate(90.000000) translate(-22.734569, -219.734573) "></path>
                <path d="M46.0740418,175.29135 L46.0740418,215.073804" id="Rectangle-4-Copy-57" stroke-width="1.2" stroke-linejoin="round" transform="translate(46.074042, 195.182577) rotate(90.000000) translate(-46.074042, -195.182577) "></path>
                <path d="M267.726819,174.936953 L267.726819,237.936871" id="Rectangle-4-Copy-55" stroke-width="1.2" stroke-linejoin="round" transform="translate(267.726819, 206.436912) rotate(90.000000) translate(-267.726819, -206.436912) "></path>
                <path d="M244.262007,184.930079 L244.262007,210.599312" id="Rectangle-4-Copy-54" stroke-width="1.2" stroke-linejoin="round" transform="translate(244.262007, 197.764695) rotate(90.000000) translate(-244.262007, -197.764695) "></path>
                <path d="M269.992561,191.006025 L269.992561,204.523366" id="Rectangle-4-Copy-56" stroke-width="1.2" stroke-linejoin="round" transform="translate(269.992561, 197.764695) rotate(90.000000) translate(-269.992561, -197.764695) "></path>
                <path d="M235.834074,109.657287 L72.9232334,120.103781" id="Rectangle-4-Copy-31" stroke-width="1.2" stroke-linejoin="round" transform="translate(154.378654, 114.880534) rotate(90.000000) translate(-154.378654, -114.880534) "></path>
                <path d="M179.664105,86.6622583 L276.782742,54.5864774" id="Rectangle-4-Copy-46" stroke-linejoin="round" stroke-dasharray="2,7" transform="translate(228.223423, 70.624368) rotate(90.000000) translate(-228.223423, -70.624368) "></path>
                <path d="M142.859664,57.8787587 L241.519825,84.6694654" id="Rectangle-4-Copy-47" stroke-linejoin="round" stroke-dasharray="2,7" transform="translate(192.189745, 71.274112) rotate(90.000000) translate(-192.189745, -71.274112) "></path>
                <g id="Group-6" transform="translate(143.457948, 19.637974) rotate(-10.000000) translate(-143.457948, -19.637974) translate(60.826369, 14.374817)" stroke-linejoin="round" stroke-width="1.2">
                    <polyline id="Rectangle-4-Copy-44" transform="translate(101.978627, 5.224445) rotate(90.000000) translate(-101.978627, -5.224445) " points="106.398403 67.5042573 106.365317 -57.0553681 101.522291 -57.0553681 97.5588512 -51.2100191 97.5588512 -34.1725323"></polyline>
                    <path d="M131.026128,-24.053614 L131.026128,34.1291571" id="Rectangle-4-Copy-45" transform="translate(131.026128, 5.037772) rotate(90.000000) translate(-131.026128, -5.037772) "></path>
                    <polyline id="Rectangle-4-Copy-51" transform="translate(67.448426, 5.173291) scale(-1, 1) rotate(90.000000) translate(-67.448426, -5.173291) " points="71.9282225 -27.0816263 71.9282225 -61.8347852 67.0851961 -61.8347852 63.1217564 -55.9894362 62.9686304 72.1813664"></polyline>
                    <path d="M27.9010519,-18.2400517 L27.9010519,28.3994986" id="Rectangle-4-Copy-50" transform="translate(27.901052, 5.079723) scale(-1, 1) rotate(90.000000) translate(-27.901052, -5.079723) "></path>
                </g>
                <path d="M56.2139006,116.738385 L140.339428,88.7531915" id="Rectangle-4-Copy-49" stroke-linejoin="round" stroke-dasharray="2,7" transform="translate(98.276664, 102.745788) rotate(90.000000) translate(-98.276664, -102.745788) "></path>
                <path d="M9.32270859,80.9907093 L112.374117,108.415998" id="Rectangle-4-Copy-48" stroke-linejoin="round" stroke-dasharray="2,7" transform="translate(60.848413, 94.703354) rotate(90.000000) translate(-60.848413, -94.703354) "></path>
                <path d="M219.157712,106.955926 L75.9332035,110.554919" id="Rectangle-4-Copy-28" stroke-width="1.2" stroke-linejoin="round" transform="translate(147.545458, 108.755423) rotate(90.000000) translate(-147.545458, -108.755423) "></path>
                <path d="M159.74576,197.159607 L140.155571,197.860087" id="Rectangle-4-Copy-29" stroke-width="1.2" stroke-linejoin="round" transform="translate(149.950665, 197.509847) rotate(90.000000) translate(-149.950665, -197.509847) "></path>
            </g>
        </g>
    </g>
</svg>