<?xml version="1.0" encoding="UTF-8"?>
<svg width="361px" height="159px" viewBox="0 0 361 159" version="1.1" xmlns="http://www.w3.org/2000/svg" xmlns:xlink="http://www.w3.org/1999/xlink">
    <!-- Generator: Sketch 49.2 (51160) - http://www.bohemiancoding.com/sketch -->
    <title>Group 32</title>
    <desc>Created with Sketch.</desc>
    <defs></defs>
    <g id="Vision" stroke="none" stroke-width="1" fill="none" fill-rule="evenodd">
        <g transform="translate(-182.000000, -1551.000000)" id="Group-32" stroke="#000000">
            <g transform="translate(182.000000, 1552.000000)">
                <g id="Group-25" transform="translate(169.000000, 35.000000)" stroke-linecap="round" stroke-linejoin="round" stroke-width="1.5">
                    <path d="M1.32338088,19.6053874 C0.0381503188,17.0119669 0.0381503188,13.5423875 1.32338088,9.19664925 L14.9001408,20.6411509 C16.6396211,15.1857101 16.6396211,10.4179392 14.9001408,6.33783829" id="Path-3-Copy-21"></path>
                    <path d="M1.32338088,19.6053874 C0.0381503188,17.0119669 0.0381503188,13.5423875 1.32338088,9.19664925 L14.9001408,20.6411509 C16.6396211,15.1857101 16.6396211,10.4179392 14.9001408,6.33783829" id="Path-3-Copy-94"></path>
                    <path d="M22.2189931,24.2231818 C25.5952538,16.7110265 25.8092943,10.0103488 22.8611146,4.12114886" id="Path-3-Copy-95"></path>
                    <path d="M29.473411,27.295663 C33.3686027,18.2374916 33.4978372,9.17932023 29.8611146,0.121148859" id="Path-3-Copy-96"></path>
                </g>
                <path d="M87,66.8045553 L87,55 C87,49.4771525 91.4771525,45 97,45 L103.263669,45 L103.263669,47.4943467 C103.263669,48.5989162 104.1591,49.4943467 105.263669,49.4943467 L121.146591,49.4943467 C122.251161,49.4943467 123.146591,48.5989162 123.146591,47.4943467 L123.146591,45 L129,45 C134.522847,45 139,49.4771525 139,55 L139,140 C139,145.522847 134.522847,150 129,150 L97,150 C91.4771525,150 87,145.522847 87,140 L87,83.0689273" id="Rectangle-4-Copy-27" stroke-width="1.5" stroke-linecap="round" stroke-linejoin="round"></path>
                <g id="Group-27" transform="translate(103.000000, 86.000000)" stroke-linecap="round" stroke-linejoin="round">
                    <path d="M1.42857143,16.2851119 L1.42857143,1.42857143" id="Path-3-Copy-95" stroke-width="1.2"></path>
                    <path d="M10,16.2851119 L10,1.42857143" id="Path-3-Copy-98" stroke-width="1.2"></path>
                    <path d="M18,16.2851119 L18,1.42857143" id="Path-3-Copy-100"></path>
                    <g id="Group-26" transform="translate(4.285714, 0.857108)" stroke-width="2">
                        <path d="M10,14.8565405 L10,1.14225481" id="Path-3-Copy-99"></path>
                        <path d="M1.42857143,14.8565405 L1.42857143,1.14225481" id="Path-3-Copy-97"></path>
                    </g>
                </g>
                <path d="M107,36.1890146 L107,7 C107,3.13400675 110.134007,-7.83198164e-12 114,-1.74882331e-11 L249.820657,8.8817842e-16 C253.68665,1.78006981e-16 256.820657,3.13400675 256.820657,7 L256.820657,94 C256.820657,95.6568543 255.477511,97 253.820657,97 L147.792334,97" id="Rectangle-4-Copy-29" stroke-width="1.5" stroke-linecap="round" stroke-linejoin="round"></path>
                <path d="M147.792334,125.430236 L280.064077,125.430236 C282.825501,125.430236 285.064077,123.19166 285.064077,120.430236 C285.064077,118.821575 284.29009,117.311165 282.984306,116.371633 L258.789751,98.9632723" id="Rectangle-4-Copy-42" stroke-width="1.5" stroke-linecap="round" stroke-linejoin="round"></path>
                <path d="M151.792334,118.430236 L276.67557,118.430236" id="Rectangle-4-Copy-43" stroke-width="1.5" stroke-linecap="round" stroke-linejoin="round"></path>
                <path d="M77,157 L201.883236,157" id="Rectangle-4-Copy-45" stroke-width="1.5" stroke-linecap="round" stroke-linejoin="round"></path>
                <path d="M0.705632287,157 L69.172586,157" id="Rectangle-4-Copy-48" stroke-width="1.5" stroke-linecap="round" stroke-linejoin="round"></path>
                <path d="M64.2061862,145 L80.8832355,145" id="Rectangle-4-Copy-47" stroke-width="1.5" stroke-linecap="round" stroke-linejoin="round"></path>
                <path d="M151,133 L359.346021,133" id="Rectangle-4-Copy-46" stroke-width="1.5" stroke-linecap="round" stroke-linejoin="round"></path>
                <g id="Group-16-Copy-3" transform="translate(317.000000, 102.000000)" stroke-linecap="round" stroke-width="1.2">
                    <path d="M14.7250138,11.0809437 C22.8574143,11.0809437 29.4500275,8.60038999 29.4500275,5.54047187 C29.4500275,2.48055375 22.8574143,0 14.7250138,0 C6.59261322,0 0,2.48055375 0,5.54047187 C0,6.99825318 1.49631401,8.32453717 3.94257807,9.3137475" id="Oval-Copy-3" transform="translate(14.725014, 5.540472) scale(1, -1) translate(-14.725014, -5.540472) "></path>
                    <path d="M29.4500275,13.7994145 C29.4500275,14.0838665 29.4500275,13.1960117 29.4500275,11.1358503 C29.4500275,8.04560812 22.8574143,5.54047187 14.7250138,5.54047187 C6.59261322,5.54047187 0,8.04560812 0,11.1358503 C0,12.1173357 0,13.0051904 0,13.7994145" id="Oval-Copy-13" transform="translate(14.725014, 9.695826) scale(1, -1) translate(-14.725014, -9.695826) "></path>
                </g>
                <g id="Group-21-Copy-5" transform="translate(295.215627, 89.730372) rotate(15.000000) translate(-295.215627, -89.730372) translate(278.215627, 65.930372)" stroke-width="1.2">
                    <path d="M19.9586352,47.4679124 C29.0160344,47.0370435 33.9029452,43.9993538 33.6207752,36.6689635 C33.331728,29.1599101 29.4512915,22.5689971 21.9794657,16.8962247 L27.6681975,4.54146673 L21.3128394,7.80578616 C20.5619855,8.19144922 19.6637319,8.15430912 18.9472785,7.70797729 L17.3389251,6.70601492 C16.5599166,6.22071285 15.5723465,6.22218748 14.7947907,6.70981381 L10.9783235,9.10322392 C10.2743213,9.54472284 9.39202917,9.59062932 8.64600923,9.22457641 L1.74910954,5.84044406 L5.58843781,16.1216034 C0.733916481,28.3521684 -0.764809267,36.4394854 1.09226057,40.3835542" id="Path-6" stroke-linecap="round" stroke-linejoin="round"></path>
                    <g id="Group" transform="translate(14.705718, 33.764338) rotate(10.000000) translate(-14.705718, -33.764338) translate(8.148576, 27.753623)">
                        <circle id="Oval-Copy-3" cx="5.33486842" cy="5.33486842" r="5.33486842"></circle>
                        <path d="M7.41860991,4.02627296 L7.86285129,4.44371549 C9.12292958,5.62777957 9.19797765,7.60450479 8.03130531,8.88070254 L7.8356859,9.0946864 C6.75690384,10.2747429 6.76251437,12.0846477 7.84859176,13.2579933" id="Path-9" stroke-linecap="square" transform="translate(7.944851, 8.642133) rotate(110.000000) translate(-7.944851, -8.642133) "></path>
                    </g>
                    <path d="M6.46940531,17.0168354 C10.9646378,20.0059708 15.0328734,20.7173729 18.6741123,19.1510419" id="Path-7" stroke-linecap="round" stroke-linejoin="round"></path>
                    <path d="M1.6713803,5.63194467 C1.31101248,2.33663479 3.3338192,1.20626299 7.73980046,2.24082925 C14.3487723,3.79267864 15.6254372,-2.07016977 21.1588214,1.04781214" id="Path-7-Copy" stroke-linecap="round" stroke-linejoin="round"></path>
                </g>
                <g id="Group-39" transform="translate(10.000000, 121.000000)" stroke-linecap="round" stroke-width="1.2">
                    <g id="Group-16-Copy-5" transform="translate(0.694984, 0.432620)">
                        <path d="M15.4855365,11.6532562 C24.0379621,11.6532562 30.9710729,9.04458596 30.9710729,5.82662811 C30.9710729,2.60867026 24.0379621,0 15.4855365,0 C6.93311083,0 0,2.60867026 0,5.82662811 C0,7.35970142 1.57359617,8.75448579 4.14620573,9.7947872" id="Oval-Copy-3" transform="translate(15.485536, 5.826628) scale(1, -1) translate(-15.485536, -5.826628) "></path>
                        <path d="M30.9710729,14.5121315 C30.9710729,14.8112749 30.9710729,13.877564 30.9710729,11.7109986 C30.9710729,8.46115051 24.0379621,5.82662811 15.4855365,5.82662811 C6.93311083,5.82662811 0,8.46115051 0,11.7109986 C0,12.7431761 0,13.676887 0,14.5121315" id="Oval-Copy-13" transform="translate(15.485536, 10.196599) scale(1, -1) translate(-15.485536, -10.196599) "></path>
                    </g>
                    <g id="Group-16-Copy-4" transform="translate(0.694984, 11.357548)">
                        <path d="M29.8637216,8.19369578 C30.5780491,7.56547058 30.9710729,6.87956583 30.9710729,6.16128052 C30.9710729,3.14444504 24.0379621,0.698816668 15.4855365,0.698816668 C6.93311083,0.698816668 0,3.14444504 0,6.16128052 C0,6.86379259 0.375952064,7.53533062 1.06075791,8.15222594" id="Oval-Copy-3" transform="translate(15.485536, 4.446256) scale(1, -1) translate(-15.485536, -4.446256) "></path>
                        <path d="M30.9710729,10.8738913 C30.9710729,11.1543383 30.9710729,10.2789843 30.9710729,8.24782926 C30.9710729,5.20109668 24.0379621,2.73123193 15.4855365,2.73123193 C6.93311083,2.73123193 0,5.20109668 0,8.24782926 C0,9.21549563 0,10.0908497 0,10.8738913" id="Oval-Copy-13" transform="translate(15.485536, 6.828080) scale(1, -1) translate(-15.485536, -6.828080) "></path>
                    </g>
                    <g id="Group-16-Copy-8" transform="translate(0.694984, 18.640833)">
                        <path d="M29.8637216,8.19369578 C30.5780491,7.56547058 30.9710729,6.87956583 30.9710729,6.16128052 C30.9710729,3.14444504 24.0379621,0.698816668 15.4855365,0.698816668 C6.93311083,0.698816668 0,3.14444504 0,6.16128052 C0,6.86379259 0.375952064,7.53533062 1.06075791,8.15222594" id="Oval-Copy-3" transform="translate(15.485536, 4.446256) scale(1, -1) translate(-15.485536, -4.446256) "></path>
                        <path d="M30.9710729,10.8738913 C30.9710729,11.1543383 30.9710729,10.2789843 30.9710729,8.24782926 C30.9710729,5.20109668 24.0379621,2.73123193 15.4855365,2.73123193 C6.93311083,2.73123193 0,5.20109668 0,8.24782926 C0,9.21549563 0,10.0908497 0,10.8738913" id="Oval-Copy-13" transform="translate(15.485536, 6.828080) scale(1, -1) translate(-15.485536, -6.828080) "></path>
                    </g>
                </g>
                <g id="Group-21-Copy" transform="translate(61.715000, 106.767273) scale(-1, 1) translate(-61.715000, -106.767273) translate(44.000000, 81.000000)" stroke-linecap="round" stroke-width="1.2">
                    <g id="Group-16" transform="translate(1.797922, 0.000000)">
                        <path d="M15.2823334,11.5003408 C23.722533,11.5003408 30.5646667,8.9259018 30.5646667,5.75017038 C30.5646667,2.57443897 23.722533,0 15.2823334,0 C6.8421337,0 0,2.57443897 0,5.75017038 C0,7.26312652 1.55294725,8.63960836 4.09179871,9.66625881" id="Oval-Copy-3" transform="translate(15.282333, 5.750170) scale(1, -1) translate(-15.282333, -5.750170) "></path>
                        <path d="M30.5646667,14.3217015 C30.5646667,14.6169196 30.5646667,13.6954609 30.5646667,11.5573254 C30.5646667,8.35012227 23.722533,5.75017038 15.2823334,5.75017038 C6.8421337,5.75017038 0,8.35012227 0,11.5573254 C0,12.5759586 0,13.4974172 0,14.3217015" id="Oval-Copy-13" transform="translate(15.282333, 10.062798) scale(1, -1) translate(-15.282333, -10.062798) "></path>
                    </g>
                    <g id="Group-16-Copy" transform="translate(0.000000, 10.482081)">
                        <path d="M30.0282657,7.08991224 C30.3779887,6.63723454 30.5646667,6.16084027 30.5646667,5.66906592 C30.5646667,2.69181772 23.722533,0.278281181 15.2823334,0.278281181 C6.8421337,0.278281181 0,2.69181772 0,5.66906592 C0,6.36235954 0.371018775,7.02508557 1.04683852,7.63388591 C1.21344132,7.78396712 1.74151271,8.0345602 2.63105269,8.38566514" id="Oval-Copy-3" transform="translate(15.282333, 4.331973) scale(1, -1) translate(-15.282333, -4.331973) "></path>
                        <path d="M30.5646667,11.0306908 C30.5646667,11.3074578 30.5646667,10.4435903 30.5646667,8.43908828 C30.5646667,5.4323353 23.722533,2.99488041 15.2823334,2.99488041 C6.8421337,2.99488041 0,5.4323353 0,8.43908828 C0,9.39405682 0,10.2579243 0,11.0306908" id="Oval-Copy-13" transform="translate(15.282333, 7.037969) scale(1, -1) translate(-15.282333, -7.037969) "></path>
                    </g>
                    <g id="Group-16-Copy-2" transform="translate(1.797922, 17.669794)">
                        <path d="M28.0708958,8.38566514 C28.819493,8.02697376 29.2864764,7.76611506 29.4718462,7.60308904 C30.1768002,6.98310749 30.5646667,6.30620326 30.5646667,5.59734338 C30.5646667,2.62009518 23.722533,0.206558647 15.2823334,0.206558647 C6.8421337,0.206558647 0,2.62009518 0,5.59734338 C0,6.01606192 0.135333666,6.42363055 0.391413202,6.81490347" id="Oval-Copy-3" transform="translate(15.282333, 4.296112) scale(1, -1) translate(-15.282333, -4.296112) "></path>
                        <path d="M30.5646667,11.0306908 C30.5646667,11.3074578 30.5646667,10.4435903 30.5646667,8.43908828 C30.5646667,5.4323353 23.722533,2.99488041 15.2823334,2.99488041 C6.8421337,2.99488041 0,5.4323353 0,8.43908828 C0,9.39405682 0,10.2579243 0,11.0306908" id="Oval-Copy-13" transform="translate(15.282333, 7.037969) scale(1, -1) translate(-15.282333, -7.037969) "></path>
                    </g>
                    <g id="Group-16-Copy-6" transform="translate(3.595843, 24.857507)">
                        <path d="M28.0708958,8.38566514 C28.819493,8.02697376 29.2864764,7.76611506 29.4718462,7.60308904 C30.1768002,6.98310749 30.5646667,6.30620326 30.5646667,5.59734338 C30.5646667,2.62009518 23.722533,0.206558647 15.2823334,0.206558647 C6.8421337,0.206558647 0,2.62009518 0,5.59734338 C0,6.01606192 0.135333666,6.42363055 0.391413202,6.81490347" id="Oval-Copy-3" transform="translate(15.282333, 4.296112) scale(1, -1) translate(-15.282333, -4.296112) "></path>
                        <path d="M30.5646667,11.0306908 C30.5646667,11.3074578 30.5646667,10.4435903 30.5646667,8.43908828 C30.5646667,5.4323353 23.722533,2.99488041 15.2823334,2.99488041 C6.8421337,2.99488041 0,5.4323353 0,8.43908828 C0,9.39405682 0,10.2579243 0,11.0306908" id="Oval-Copy-13" transform="translate(15.282333, 7.037969) scale(1, -1) translate(-15.282333, -7.037969) "></path>
                    </g>
                    <g id="Group-16-Copy-7" transform="translate(16.794861, 45.137933) scale(-1, 1) translate(-16.794861, -45.137933) translate(1.227133, 39.232933)">
                        <path d="M28.0708958,8.38566514 C28.819493,8.02697376 29.2864764,7.76611506 29.4718462,7.60308904 C30.1768002,6.98310749 30.5646667,6.30620326 30.5646667,5.59734338 C30.5646667,2.62009518 23.722533,0.206558647 15.2823334,0.206558647 C6.8421337,0.206558647 0,2.62009518 0,5.59734338 C0,6.01606192 0.135333666,6.42363055 0.391413202,6.81490347" id="Oval-Copy-3" transform="translate(15.282333, 4.296112) scale(1, -1) translate(-15.282333, -4.296112) "></path>
                        <path d="M30.5646667,11.0306908 C30.5646667,11.3074578 30.5646667,10.4435903 30.5646667,8.43908828 C30.5646667,5.4323353 23.722533,2.99488041 15.2823334,2.99488041 C6.8421337,2.99488041 0,5.4323353 0,8.43908828 C0,9.39405682 0,10.2579243 0,11.0306908" id="Oval-Copy-13" transform="translate(15.282333, 7.037969) scale(1, -1) translate(-15.282333, -7.037969) "></path>
                    </g>
                    <g id="Group-16-Copy-4" transform="translate(3.595843, 32.344708)">
                        <path d="M29.4718462,8.0861771 C30.1768002,7.46619555 30.5646667,6.78929133 30.5646667,6.08043145 C30.5646667,3.10318325 23.722533,0.689646711 15.2823334,0.689646711 C6.8421337,0.689646711 0,3.10318325 0,6.08043145 C0,6.77372507 0.371018775,7.4364511 1.04683852,8.04525144" id="Oval-Copy-3" transform="translate(15.282333, 4.387912) scale(1, -1) translate(-15.282333, -4.387912) "></path>
                        <path d="M30.5646667,10.7312028 C30.5646667,11.0079697 30.5646667,10.1441022 30.5646667,8.13960024 C30.5646667,5.13284726 23.722533,2.69539237 15.2823334,2.69539237 C6.8421337,2.69539237 0,5.13284726 0,8.13960024 C0,9.09456878 0,9.9584363 0,10.7312028" id="Oval-Copy-13" transform="translate(15.282333, 6.738481) scale(1, -1) translate(-15.282333, -6.738481) "></path>
                    </g>
                </g>
                <path d="M291.844419,123 L319.950479,123" id="Rectangle-4-Copy-49" stroke-width="1.5" stroke-linecap="round" stroke-linejoin="round"></path>
                <path d="M158.337966,118.251501 L162.576301,110.796347 C162.754046,110.483696 163.08599,110.290573 163.445634,110.290573 L220.772804,110.290573 C220.980209,110.290573 221.182483,110.355062 221.351614,110.47511 L232.307466,118.251501" id="Rectangle-4-Copy-44" stroke-width="1.5" stroke-linecap="round" stroke-linejoin="round"></path>
                <path d="M186.602009,5 L178,5" id="Path-3-Copy-95" stroke-width="1.2" stroke-linecap="round" stroke-linejoin="round"></path>
                <path d="M113,142.995008 C114.104569,142.995008 115,142.100695 115,140.997504 C115,139.894313 114.104569,139 113,139 C111.895431,139 111,139.894313 111,140.997504 C111,141.523077 111.203234,142.001242 111.535494,142.357881" id="Oval-Copy-10" stroke-width="0.8" stroke-linecap="round" transform="translate(113.000000, 140.997504) rotate(-138.000000) translate(-113.000000, -140.997504) "></path>
                <path d="M123.161366,143.159636 C124.265936,143.159636 125.161366,142.265323 125.161366,141.162132 C125.161366,140.058942 124.265936,139.164629 123.161366,139.164629 C122.056797,139.164629 121.161366,140.058942 121.161366,141.162132 C121.161366,141.687706 121.364601,142.16587 121.69686,142.52251" id="Oval-Copy-22" stroke-width="0.8" stroke-linecap="round" transform="translate(123.161366, 141.162132) rotate(-138.000000) translate(-123.161366, -141.162132) "></path>
                <path d="M103.161366,143.159636 C104.265936,143.159636 105.161366,142.265323 105.161366,141.162132 C105.161366,140.058942 104.265936,139.164629 103.161366,139.164629 C102.056797,139.164629 101.161366,140.058942 101.161366,141.162132 C101.161366,141.687706 101.364601,142.16587 101.69686,142.52251" id="Oval-Copy-26" stroke-width="0.8" stroke-linecap="round" transform="translate(103.161366, 141.162132) rotate(8.000000) translate(-103.161366, -141.162132) "></path>
            </g>
        </g>
    </g>
</svg>