<?xml version="1.0" encoding="UTF-8"?>
<svg width="206px" height="186px" viewBox="0 0 206 186" version="1.1" xmlns="http://www.w3.org/2000/svg" xmlns:xlink="http://www.w3.org/1999/xlink">
    <!-- Generator: Sketch 49.2 (51160) - http://www.bohemiancoding.com/sketch -->
    <title>Group 49</title>
    <desc>Created with Sketch.</desc>
    <defs></defs>
    <g id="Vision" stroke="none" stroke-width="1" fill="none" fill-rule="evenodd" stroke-linecap="round" stroke-linejoin="round">
        <g transform="translate(-1003.000000, -3558.000000)" id="Group-49" stroke="#000000" stroke-width="1.5">
            <g transform="translate(1004.000000, 3552.000000)">
                <g id="Group-48" transform="translate(120.423758, 101.562527) rotate(20.000000) translate(-120.423758, -101.562527) translate(47.423758, 20.562527)">
                    <path d="M54.8678689,112 L128.665713,112" id="Rectangle-4-Copy-45"></path>
                    <path d="M54.8678689,98 L140.883236,98" id="Rectangle-4-Copy-54"></path>
                    <path d="M59.8678689,102 L145.883236,102" id="Rectangle-4-Copy-55"></path>
                    <path d="M21.7596053,76.804372 L21.7596053,114.455134" id="Rectangle-4-Copy-56"></path>
                    <path d="M11,30.0029624 L11,54.6507623" id="Rectangle-4-Copy-60"></path>
                    <path d="M45.00167,19.3386478 L45.00167,48.6602331" id="Rectangle-4-Copy-61"></path>
                    <path d="M18.7697422,0.337734067 L18.7697422,37.9884963" id="Rectangle-4-Copy-62"></path>
                    <polyline id="Rectangle-4-Copy-50" points="44.8678689 115 51.0905255 115 51.0905255 94.6241046 45.3927321 94.6241046"></polyline>
                    <polyline id="Rectangle-4-Copy-51" points="15.8678689 133.325201 15.8678689 137 42.0905255 137 42.0905255 76.6241046 15.3927321 76.6241046 15.3927321 127.447415"></polyline>
                    <path d="M37.4282641,151.492355 L39.7538226,151.492355 C43.7557759,151.492355 47,148.248131 47,144.246177 L47,144.246177 C47,140.244224 43.7557759,137 39.7538226,137 L17.2461774,137 C13.2442241,137 10,140.244224 10,144.246177 L10,144.246177 C10,148.248131 13.2442241,151.492355 17.2461774,151.492355 L19.345576,151.492355" id="Rectangle-4-Copy-52" transform="translate(28.500000, 144.246177) scale(1, -1) translate(-28.500000, -144.246177) "></path>
                    <path d="M17.6830897,141.909384 L15.5606181,141.872721 C10.0385944,141.777334 5.48478329,146.176492 5.38939631,151.698516 C5.38840193,151.756082 5.38790471,151.813655 5.38790471,151.871229 L5.38790471,156.189353" id="Rectangle-4-Copy-63" transform="translate(11.535497, 149.030276) scale(1, -1) translate(-11.535497, -149.030276) "></path>
                    <path d="M13.0709944,146.780583 L13.0709944,146.780583 C6.39683577,146.665294 0.892901095,151.982309 0.777612232,158.656467 C0.776410373,158.726044 0.775809411,158.79563 0.775809411,158.865216 L0.775809411,161.060552" id="Rectangle-4-Copy-64" transform="translate(6.923402, 153.901475) scale(1, -1) translate(-6.923402, -153.901475) "></path>
                    <path d="M36.9282641,73.6881974 L39.2538226,73.6881974 C43.2557759,73.6881974 46.5,70.4439733 46.5,66.44202 L46.5,66.44202 C46.5,62.4400668 43.2557759,59.1958426 39.2538226,59.1958426 L16.7461774,59.1958426 C12.7442241,59.1958426 9.5,62.4400668 9.5,66.44202 L9.5,66.44202 C9.5,70.4439733 12.7442241,73.6881974 16.7461774,73.6881974 L32.1042242,73.6881974" id="Rectangle-4-Copy-53"></path>
                </g>
                <polyline id="Rectangle-4-Copy-50" points="86.3043612 180.44881 86.3043612 173 29.3043612 173 29.3043612 180.44881"></polyline>
                <polyline id="Rectangle-4-Copy-57" points="95 186.44881 95 183 20 183 20 186.44881"></polyline>
                <path d="M203.641691,191 L0.175199019,191" id="Rectangle-4-Copy-58"></path>
                <path d="M169.008961,186 L101.908445,186" id="Rectangle-4-Copy-59"></path>
            </g>
        </g>
    </g>
</svg>