<?xml version="1.0" encoding="UTF-8"?>
<svg width="90px" height="78px" viewBox="0 0 90 78" version="1.1" xmlns="http://www.w3.org/2000/svg" xmlns:xlink="http://www.w3.org/1999/xlink">
    <!-- Generator: Sketch 49.2 (51160) - http://www.bohemiancoding.com/sketch -->
    <title>Group 64</title>
    <desc>Created with Sketch.</desc>
    <defs></defs>
    <g id="Vision" stroke="none" stroke-width="1" fill="none" fill-rule="evenodd" stroke-linecap="round">
        <g transform="translate(-1023.000000, -6587.000000)" id="Group-64" stroke="#000000">
            <g transform="translate(1023.000000, 6582.000000)">
                <g id="Group-61" transform="translate(0.000000, 22.000000)">
                    <path d="M5.71428571,56.7142857 L80.836214,56.5952747" id="Path-3-Copy-115" stroke-linejoin="round"></path>
                    <path d="M30,59.6904396 L89.9944747,59.5714286" id="Path-3-Copy-118" stroke-linejoin="round"></path>
                    <path d="M0,59.6904396 L25.9941359,59.5714286" id="Path-3-Copy-119" stroke-linejoin="round"></path>
                    <path d="M14.6949697,20.6038334 L14.4447739,20.6038334 C13.1734604,20.6038334 12.1428571,19.5732302 12.1428571,18.3019167 L12.1428571,18.3019167 C12.1428571,17.0306032 13.1734604,16 14.4447739,16 L15.4687937,16 C17.3056578,16 18.7947303,17.4890725 18.7947303,19.3259366 L18.7947303,52.7142431" id="Combined-Shape" stroke-linejoin="round"></path>
                    <path d="M12.1235411,23.0324049 L12.1235411,23.0324049 C9.76727441,23.0324049 7.85714286,21.1222733 7.85714286,18.7660066 L7.85714286,17.7304881 C7.85714286,14.8023204 10.2308918,12.4285714 13.1590596,12.4285714 L15.4687937,12.4285714 C19.6725924,12.4285714 23.0804446,15.8364236 23.0804446,20.0402223 L23.0804446,52.571386" id="Combined-Shape-Copy-2" stroke-linejoin="round"></path>
                    <path d="M69.6949697,20.6038334 L69.4447739,20.6038334 C68.1734604,20.6038334 67.1428571,19.5732302 67.1428571,18.3019167 L67.1428571,18.3019167 C67.1428571,17.0306032 68.1734604,16 69.4447739,16 L70.4687937,16 C72.3056578,16 73.7947303,17.4890725 73.7947303,19.3259366 L73.7947303,52.7142431" id="Combined-Shape-Copy-4" stroke-linejoin="round" transform="translate(70.468794, 34.357122) scale(-1, 1) translate(-70.468794, -34.357122) "></path>
                    <path d="M67.1235411,23.0324049 L67.1235411,23.0324049 C64.7672744,23.0324049 62.8571429,21.1222733 62.8571429,18.7660066 L62.8571429,17.7304881 C62.8571429,14.8023204 65.2308918,12.4285714 68.1590596,12.4285714 L70.4687937,12.4285714 C74.6725924,12.4285714 78.0804446,15.8364236 78.0804446,20.0402223 L78.0804446,52.571386" id="Combined-Shape-Copy-3" stroke-linejoin="round" transform="translate(70.468794, 32.499979) scale(-1, 1) translate(-70.468794, -32.499979) "></path>
                    <polyline id="Rectangle-4-Copy-17" stroke-linejoin="round" points="59.677901 5.28571429 5.71428571 5.28571429 5.71428571 9.57142857 79.1122457 9.57142857 79.1122457 7.03012608"></polyline>
                    <path d="M32.8751997,24.168636 C34.6152165,24.168636 36.0257789,22.7580737 36.0257789,21.0180569 C36.0257789,19.2780401 34.6152165,17.8674777 32.8751997,17.8674777 C31.1351829,17.8674777 29.7246206,19.2780401 29.7246206,21.0180569 C29.7246206,21.8470215 30.0447735,22.6012105 30.5681787,23.1637231" id="Oval-Copy-3" transform="translate(32.875200, 21.018057) rotate(-150.000000) translate(-32.875200, -21.018057) "></path>
                    <path d="M43.5894854,24.168636 C45.3295023,24.168636 46.7400646,22.7580737 46.7400646,21.0180569 C46.7400646,19.2780401 45.3295023,17.8674777 43.5894854,17.8674777 C41.8494686,17.8674777 40.4389063,19.2780401 40.4389063,21.0180569 C40.4389063,21.8470215 40.7590592,22.6012105 41.2824644,23.1637231" id="Oval-Copy-10" transform="translate(43.589485, 21.018057) rotate(-150.000000) translate(-43.589485, -21.018057) "></path>
                    <path d="M52.8751997,24.168636 C54.6152165,24.168636 56.0257789,22.7580737 56.0257789,21.0180569 C56.0257789,19.2780401 54.6152165,17.8674777 52.8751997,17.8674777 C51.1351829,17.8674777 49.7246206,19.2780401 49.7246206,21.0180569 C49.7246206,21.8470215 50.0447735,22.6012105 50.5681787,23.1637231" id="Oval-Copy-11" transform="translate(52.875200, 21.018057) rotate(-150.000000) translate(-52.875200, -21.018057) "></path>
                    <path d="M51.1428571,52.5771043 L51.1428571,40.8571429 C51.1428571,36.5966605 47.6890538,33.1428571 43.4285714,33.1428571 L43.4285714,33.1428571 C39.1680891,33.1428571 35.7142857,36.5966605 35.7142857,40.8571429 L35.7142857,52.5771043" id="Rectangle-4-Copy-33" stroke-linejoin="round"></path>
                    <path d="M44.4285714,46.5639194 L44.4285714,43.1428571" id="Path-3-Copy-25"></path>
                    <path d="M42.2857143,46.5639194 L42.2857143,43.1428571" id="Path-3-Copy-26"></path>
                    <polyline id="Rectangle-4-Copy-30" stroke-linejoin="round" transform="translate(12.215921, 3.142857) scale(-1, -1) translate(-12.215921, -3.142857) " points="10 5.28571429 14.4318416 5.28571429 14.4318416 1"></polyline>
                    <path d="M55.496959,1 L17.932837,1" id="Rectangle-4-Copy-65" stroke-linejoin="round" transform="translate(36.714898, 1.000000) scale(-1, -1) translate(-36.714898, -1.000000) "></path>
                </g>
                <g id="Group-63" transform="translate(69.500000, 16.500000) rotate(5.000000) translate(-69.500000, -16.500000) translate(55.000000, 2.000000)" stroke-linejoin="round">
                    <path d="M14.6530557,25.1530557 C20.4520456,25.1530557 25.1530557,20.4520456 25.1530557,14.6530557 C25.1530557,8.85406587 20.4520456,4.15305575 14.6530557,4.15305575 C8.85406587,4.15305575 4.15305575,8.85406587 4.15305575,14.6530557 C4.15305575,17.4157634 5.22003588,19.9292644 6.96439911,21.8039618" id="Oval-Copy-11" stroke-width="1.2" stroke-dasharray="2,4" transform="translate(14.653056, 14.653056) rotate(-150.000000) translate(-14.653056, -14.653056) "></path>
                    <g id="Group-46" transform="translate(15.267707, 14.767707) scale(1, -1) translate(-15.267707, -14.767707) translate(11.267707, 10.267707)" stroke-width="2">
                        <path d="M0.225200772,7.8467711 L7.52460795,0.708992741" id="Path-13-Copy"></path>
                        <path d="M0.463468869,0.956382964 L7.03340676,8.6000513" id="Path-13-Copy-2"></path>
                    </g>
                </g>
            </g>
        </g>
    </g>
</svg>