<?xml version="1.0" encoding="UTF-8"?>
<svg width="61px" height="62px" viewBox="0 0 61 62" version="1.1" xmlns="http://www.w3.org/2000/svg" xmlns:xlink="http://www.w3.org/1999/xlink">
    <!-- Generator: Sketch 49.2 (51160) - http://www.bohemiancoding.com/sketch -->
    <title>Group 59</title>
    <desc>Created with Sketch.</desc>
    <defs></defs>
    <g id="Vision" stroke="none" stroke-width="1" fill="none" fill-rule="evenodd" stroke-linecap="round" stroke-linejoin="round">
        <g transform="translate(-1044.000000, -5897.000000)" id="Group-59" stroke="#000000">
            <g transform="translate(1045.000000, 5898.000000)">
                <polyline id="Path-3-Copy-71" stroke-width="1.2" points="34.8272779 31.9263986 34.8272779 60 0 60 0 14.5188825 28.4009042 14.5188825 34.8272779 19.6122035 34.8272779 27.2756055"></polyline>
                <polyline id="Path-3-Copy-101" stroke-width="1.2" points="28.3196996 14.8880673 28.3196996 20.7181887 31.3374909 20.7181887"></polyline>
                <path d="M6.03314317,24.6418899 L23.5659793,24.6418899" id="Path-3-Copy-104"></path>
                <g id="Group-62" transform="translate(11.785714, 0.000000)" stroke-width="1.2">
                    <path d="M37.5225884,9.96227514 L44.0537621,9.96227514" id="Path-3-Copy-122"></path>
                    <path d="M0.59200265,10.6832958 L0.59200265,7 C0.59200265,3.13400675 3.7260094,7.10171439e-16 7.59200265,0 L40.4983065,0" id="Path-3-Copy-121"></path>
                    <path d="M26.8372653,54.2023614 L29.5238095,54.2023614 C32.2852333,54.2023614 34.5238095,51.9637852 34.5238095,49.2023614 L34.5238095,27.1011807 L34.5238095,4 C34.5238095,1.790861 36.3146705,4.05812251e-16 38.5238095,0 L43.4496983,0 C45.6588373,-2.36792184e-15 47.4496983,1.790861 47.4496983,4 L47.4496983,6.16611582 C47.4496983,8.26666816 45.7468642,9.96950229 43.6463119,9.96950229 L43.6463119,9.96950229 C41.5457595,9.96950229 39.8429254,8.26666816 39.8429254,6.16611582 L39.8429254,5.59661001 L34.5238095,5.59661001" id="Path-3-Copy-120"></path>
                </g>
                <path d="M6.03314317,29.9990328 L17.1374079,29.9990328" id="Path-3-Copy-105"></path>
                <path d="M6.03314317,39.6418899 L25.7088364,39.6418899" id="Path-3-Copy-106" stroke-width="2"></path>
                <path d="M6.03314317,44.9990328 L23.5659793,44.9990328" id="Path-3-Copy-107"></path>
                <path d="M6.03314317,49.2847471 L19.280265,49.2847471" id="Path-3-Copy-108"></path>
            </g>
        </g>
    </g>
</svg>