<?xml version="1.0" encoding="UTF-8"?>
<svg width="278px" height="59px" viewBox="0 0 278 59" version="1.1" xmlns="http://www.w3.org/2000/svg" xmlns:xlink="http://www.w3.org/1999/xlink">
    <!-- Generator: Sketch 50.2 (55047) - http://www.bohemiancoding.com/sketch -->
    <title>Group 32</title>
    <desc>Created with Sketch.</desc>
    <defs></defs>
    <g id="HP-path" stroke="none" stroke-width="1" fill="none" fill-rule="evenodd">
        <g id="Desktop---path" transform="translate(-968.000000, -3796.000000)">
            <g id="Group-32" transform="translate(966.000000, 3795.000000)">
                <g id="Group-23" transform="translate(80.424533, 2.348690)">
                    <path d="M6.98742133,27.8796093 C12.5596118,25.6972258 17.4500414,24.8958121 21.6587102,25.4753683 L21.6587101,25.4753696 C24.777664,25.9048662 27.2643257,28.2957044 27.8159939,31.3953823 L28.006708,32.4669544 C28.4910992,35.1886214 28.5398636,37.9699778 28.1511763,40.7069521 L28.1511763,40.7069521 C27.7688585,43.3990756 26.5863543,45.9141857 24.7570676,47.9260022 L24.656247,48.0368829 C22.8305783,50.0447203 20.1496014,51.0503361 17.4538248,50.7384611 L17.1738773,50.7060739 C14.221688,50.3645345 11.4882642,48.9807414 9.46533134,46.8036302 L9.20522059,46.523695 C7.01073029,44.161951 5.70557152,41.1107445 5.51324318,37.8925723 L5.01772986,29.601297" id="Path-3-Copy-17" stroke="#000000" stroke-width="1.452" stroke-linecap="round" stroke-linejoin="round"></path>
                    <path d="M28.6083864,32.2215771 C33.0687423,24.8810986 32.0698087,12.7278462 19.3973485,11.3199484 C21.4396173,4.53739999 18.8509251,-1.14215472 11.8587239,0.261334197 C4.86652273,1.66482311 3.29796376,8.92706122 8.39764939,12.5305615" id="Path-3-Copy-17" stroke="#000000" stroke-width="1.452" stroke-linecap="round" stroke-linejoin="round"></path>
                    <path d="M4.75826032,35.219564 C0.631275065,33.9701501 -3.40682979,15.1170383 10.5094586,12.3880627" id="Path-3-Copy-34" stroke="#000000" stroke-width="1.452" stroke-linecap="round" stroke-linejoin="round"></path>
                    <path d="M12.2437051,31.3580757 C10.21203,30.8667117 8.57968961,31.4682766 7.34668397,33.1627703" id="Path-3-Copy-17" stroke="#000000" stroke-width="0.968" stroke-linecap="round" transform="translate(9.795195, 32.177582) rotate(-7.000000) translate(-9.795195, -32.177582) "></path>
                    <path d="M26.2429358,30.0773988 C24.0201677,29.4402354 22.4060386,29.7551412 21.4005483,31.0221163" id="Path-3-Copy-18" stroke="#000000" stroke-width="0.968" stroke-linecap="round" transform="translate(23.821742, 30.389852) rotate(33.000000) translate(-23.821742, -30.389852) "></path>
                    <path d="M20.0274857,42.2286158 C17.4818883,45.0928525 15.3708635,45.8555314 13.6944113,44.5166524" id="Path-3-Copy-19" stroke="#000000" stroke-width="1.21" stroke-linecap="round" transform="translate(16.860949, 43.692503) rotate(33.000000) translate(-16.860949, -43.692503) "></path>
                    <path d="M11.0649215,26.7435848 C6.61214259,26.026046 5.17878332,22.4348498 6.76484374,15.9699962" id="Path-3-Copy-35" stroke="#000000" stroke-width="0.968" stroke-linecap="round" transform="translate(8.602457, 21.356790) rotate(33.000000) translate(-8.602457, -21.356790) "></path>
                    <path d="M25.7826296,23.952044 C24.4746248,21.3792445 22.7384556,19.6298822 20.574122,18.7039569" id="Path-3-Copy-36" stroke="#000000" stroke-width="0.968" stroke-linecap="round" transform="translate(23.178376, 21.328000) rotate(33.000000) translate(-23.178376, -21.328000) "></path>
                    <path d="M29.9645056,38.4728398 C30.536256,36.371191 29.6902882,35.0744414 27.4266023,34.582591" id="Path-3-Copy-37" stroke="#000000" stroke-width="0.968" stroke-linecap="round" transform="translate(28.782022, 36.527715) rotate(33.000000) translate(-28.782022, -36.527715) "></path>
                    <path d="M6.74185292,40.3660663 C4.87979646,40.8388558 3.92911958,39.6390992 3.88982229,36.7667967" id="Path-3-Copy-38" stroke="#000000" stroke-width="0.968" stroke-linecap="round" transform="translate(5.315838, 38.616549) rotate(33.000000) translate(-5.315838, -38.616549) "></path>
                    <path d="M13.8834187,55.2487546 C13.6468209,53.6386444 12.9787528,51.8722467 11.8792145,49.9495614" id="Path-3-Copy-45" stroke="#000000" stroke-width="1.452" stroke-linecap="round" transform="translate(12.881317, 52.599158) rotate(33.000000) translate(-12.881317, -52.599158) "></path>
                    <path d="M20.2965961,56.6117372 C18.8894071,55.4666674 18.3663001,53.4450425 18.7272751,50.5468625" id="Path-3-Copy-64" stroke="#000000" stroke-width="1.452" stroke-linecap="round" transform="translate(19.456665, 53.579300) rotate(33.000000) translate(-19.456665, -53.579300) "></path>
                    <path d="M16.8432775,37.0743422 C17.1001844,37.386577 17.7572044,38.0644625 18.8143373,39.1079989 L18.8143245,39.1080118 C19.2899003,39.5774708 19.2948589,40.3435729 18.8253999,40.8191487 C18.7173822,40.9285738 18.5894982,41.0164083 18.4485932,41.0779507 L18.2977791,41.143821" id="Path-3-Copy-23" stroke="#000000" stroke-width="0.726" stroke-linecap="round" transform="translate(17.967781, 39.109082) rotate(33.000000) translate(-17.967781, -39.109082) "></path>
                    <path d="M18.7726468,47.8144878 C18.5429547,48.4121678 18.1627915,48.7791292 17.6321572,48.9153721" id="Path-3-Copy-33" stroke="#000000" stroke-width="0.605" stroke-linecap="round" transform="translate(18.202402, 48.364930) rotate(33.000000) translate(-18.202402, -48.364930) "></path>
                    <ellipse id="Oval" fill="#000000" cx="10.9413575" cy="35.2257425" rx="1" ry="1"></ellipse>
                    <ellipse id="Oval-Copy" fill="#000000" cx="23.1705974" cy="33.7689649" rx="1" ry="1"></ellipse>
                </g>
                <g id="Group-23" transform="translate(22.119018, 36.818785) rotate(-10.000000) translate(-22.119018, -36.818785) translate(3.743239, 14.092141)">
                    <path d="M28.1566875,8.53145847 L28.1566875,8.53145847 C30.1678344,10.7157204 31.2842009,13.5763122 31.2842009,16.5454386 L31.2842009,30.1698723 C31.2842009,33.7251106 30.1144899,37.181595 27.9554826,40.0062023 L27.4827321,40.6246969 C25.6450887,43.0288672 22.976994,44.6614107 19.9998584,45.2032889 L19.9998584,45.2032889 C17.0788318,45.7349545 14.0754771,44.8952354 11.8537721,42.9256945 L10.1187981,41.3876404 C6.79569718,38.4417122 4.98176696,34.1518931 5.18332146,29.7155806 L5.8193061,15.7172502" id="Path-3-Copy-17" stroke="#000000" stroke-width="1.452" stroke-linecap="round"></path>
                    <path d="M7.32050129,6.7715172 C4.49744832,6.7715172 1.31733255,11.9863512 0.656403659,14.4984898 C5.48057643,16.2808967 12.1065937,15.2719493 16.1164976,12.9339193 C16.1164976,13.9651986 15.808885,15.5237382 15.19366,17.6095381 C19.3053601,16.5060745 22.4076809,14.9475349 24.5006223,12.9339193 C26.5935638,10.9203036 28.1511108,8.52150514 29.1732634,5.73752385 C23.2618491,-0.283416464 15.3642868,-0.646839986 5.48057643,4.64725329 C6.18442901,6.7715172 7.77977961,5.69102624 7.32050129,6.7715172 Z" id="Path-3-Copy-17" stroke="#000000" stroke-width="1.452" stroke-linecap="round" stroke-linejoin="round"></path>
                    <path d="M14.7224288,23.4977375 C13.7107897,23.5026037 12.8443063,23.5543595 12.1229786,23.6530049" id="Path-3-Copy-17" stroke="#000000" stroke-width="0.968" stroke-linecap="round" transform="translate(13.422704, 23.971355) rotate(-7.000000) translate(-13.422704, -23.971355) "></path>
                    <path d="M27.0449102,22.8542897 C25.9039048,22.7779795 24.8732756,23.1251358 23.9530227,23.8957585" id="Path-3-Copy-18" stroke="#000000" stroke-width="0.968" stroke-linecap="round" transform="translate(25.498966, 23.369867) rotate(33.000000) translate(-25.498966, -23.369867) "></path>
                    <path d="M18.2845395,42.6314312 C18.671256,43.4408434 19.1078819,44.2184448 19.5944174,44.9642352" id="Path-3-Copy-29" stroke="#000000" stroke-width="0.968" stroke-linecap="round" transform="translate(18.939478, 43.797833) rotate(33.000000) translate(-18.939478, -43.797833) "></path>
                    <path d="M33.708342,26.3757956 C34.4082363,25.0915481 35.1728298,21.299025 33.7728444,20.1681975 C32.2244763,18.9175152 30.8620046,18.6724745 29.685429,19.4330754" id="Path-3-Copy-27" stroke="#000000" stroke-width="1.21" stroke-linecap="round" transform="translate(32.121151, 22.688710) rotate(33.000000) translate(-32.121151, -22.688710) "></path>
                    <path d="M6.73556665,25.8895965 C7.43546093,24.6053491 8.30472106,22.8844216 6.50763251,21.0459962 C5.05534047,19.5602984 3.61686507,19.207543 2.1922063,19.9877299" id="Path-3-Copy-28" stroke="#000000" stroke-width="1.21" stroke-linecap="round" transform="translate(4.882469, 22.737188) scale(-1, 1) rotate(33.000000) translate(-4.882469, -22.737188) "></path>
                    <path d="M22.0777706,34.6312995 C20.8642792,37.1364446 18.8900304,38.2026093 16.1550242,37.8297937" id="Path-3-Copy-19" stroke="#000000" stroke-width="1.21" stroke-linecap="round" transform="translate(19.116397, 36.266768) rotate(33.000000) translate(-19.116397, -36.266768) "></path>
                    <path d="M21.4355604,30.6769757 C21.2063204,31.1797055 19.8725395,32.0983649 19.2276514,31.8299441 C18.7447214,31.6289349 18.7508772,30.7652595 17.9254995,28.918458 C17.7263131,28.4727738 17.1849935,27.6430071 16.3015408,26.4291577" id="Path-3-Copy-23" stroke="#000000" stroke-width="0.968" stroke-linecap="round" transform="translate(18.868551, 29.153627) rotate(33.000000) translate(-18.868551, -29.153627) "></path>
                    <ellipse id="Oval" fill="#000000" cx="13.8928498" cy="26.1437103" rx="1.04672158" ry="1.04195949"></ellipse>
                    <ellipse id="Oval-Copy" fill="#000000" cx="24.4552205" cy="26.1437103" rx="1.04672158" ry="1.04195949"></ellipse>
                </g>
                <g id="Group-13" transform="translate(144.128993, 7.046070)">
                    <path d="M38.4221015,31.2361173 C39.7765148,29.1115584 42.4722166,22.593594 38.8940735,16.6704563 C35.3159304,10.7473186 26.7400207,3.48404683 16.2710106,8.33708075 C5.8020006,13.1901147 5.45922556,24.9179979 7.38205571,30.358238 C8.66394248,33.9850648 12.4655832,37.0897662 18.7869777,39.6723423" id="Path-3-Copy-19" stroke="#000000" stroke-width="1.452" stroke-linecap="round" transform="translate(23.573522, 23.209978) rotate(33.000000) translate(-23.573522, -23.209978) "></path>
                    <path d="M8.10323094,25.6872673 L12.7286258,36.4189613 C14.0832604,39.5619413 16.5943538,42.0638476 19.7422779,43.406953 L21.581779,44.1918016 C23.5399144,45.0272672 25.7534489,45.0313704 27.7146682,44.2031701 L27.7146682,44.2031701 C29.6824229,43.3722101 31.2480776,41.8059424 32.0782676,39.8378627 L32.8503997,38.007417 C34.1672797,34.8855714 34.1118428,31.3540593 32.6976236,28.2750859 L28.658948,19.4822659 C28.1202859,18.3095153 27.1222058,17.4105298 25.8997161,16.9969848 C19.4723932,20.3617248 14.6430619,22.6284979 9.49642311,23.1493948" id="Path-3-Copy-19" stroke="#000000" stroke-width="1.452" stroke-linecap="round" stroke-linejoin="round" transform="translate(20.951615, 30.909068) rotate(33.000000) translate(-20.951615, -30.909068) "></path>
                    <ellipse id="Oval" fill="#000000" cx="15.9561214" cy="28.7982811" rx="1" ry="1"></ellipse>
                    <ellipse id="Oval-Copy-4" stroke="#000000" stroke-width="1.21" cx="15.6660101" cy="28.5094897" rx="3.48133557" ry="3.46549712"></ellipse>
                    <path d="M21.8912109,33.9361101 C21.5155979,34.7876719 20.649398,35.232109 19.292611,35.2694213" id="Path-3-Copy-23" stroke="#000000" stroke-width="1.21" stroke-linecap="round" transform="translate(20.591911, 34.602766) rotate(33.000000) translate(-20.591911, -34.602766) "></path>
                    <path d="M24.3426275,28.5337984 C22.5463759,27.9290344 20.9077638,28.6235964 19.426791,30.6174844" id="Path-3-Copy-68" stroke="#000000" stroke-width="1.21" stroke-linecap="round" transform="translate(21.884709, 29.470085) rotate(33.000000) translate(-21.884709, -29.470085) "></path>
                    <path d="M25.180857,35.8552651 C22.6956684,39.9113933 19.5254887,41.423458 15.6703179,40.3914592" id="Path-3-Copy-65" stroke="#000000" stroke-width="1.21" stroke-linecap="round" transform="translate(20.425587, 38.280348) rotate(33.000000) translate(-20.425587, -38.280348) "></path>
                    <ellipse id="Oval-Copy-5" stroke="#000000" stroke-width="1.21" cx="28.0827878" cy="30.2422382" rx="3.48133557" ry="3.46549712"></ellipse>
                    <ellipse id="Oval-Copy-2" fill="#000000" cx="27.7926765" cy="30.2999824" rx="1" ry="1"></ellipse>
                </g>
                <g id="Group-17" transform="translate(224.241769, 0.000000)" stroke="#000000">
                    <g id="Group-16-Copy-3" transform="translate(30.388653, 44.272348)" stroke-linecap="round" stroke-width="1.21">
                        <path d="M12.2014133,9.1400976 C18.9400678,9.1400976 24.4028266,7.09401706 24.4028266,4.5700488 C24.4028266,2.04608054 18.9400678,0 12.2014133,0 C5.4627588,0 0,2.04608054 0,4.5700488 C0,5.77249724 1.23987291,6.86648032 3.26689165,7.68242878" id="Oval-Copy-3" transform="translate(12.201413, 4.570049) scale(1, -1) translate(-12.201413, -4.570049) "></path>
                        <path d="M24.4028266,11.3824236 C24.4028266,11.6170533 24.4028266,10.8847078 24.4028266,9.18538717 C24.4028266,6.63640617 18.9400678,4.5700488 12.2014133,4.5700488 C5.4627588,4.5700488 0,6.63640617 0,9.18538717 C0,9.9949637 0,10.7273092 0,11.3824236" id="Oval-Copy-13" transform="translate(12.201413, 7.997585) scale(1, -1) translate(-12.201413, -7.997585) "></path>
                    </g>
                    <g id="Group-16-Copy-5" transform="translate(0.243985, 35.703506)" stroke-linecap="round" stroke-width="1.21">
                        <path d="M12.2014133,9.1400976 C18.9400678,9.1400976 24.4028266,7.09401706 24.4028266,4.5700488 C24.4028266,2.04608054 18.9400678,0 12.2014133,0 C5.4627588,0 0,2.04608054 0,4.5700488 C0,5.77249724 1.23987291,6.86648032 3.26689165,7.68242878" id="Oval-Copy-3" transform="translate(12.201413, 4.570049) scale(1, -1) translate(-12.201413, -4.570049) "></path>
                        <path d="M24.4028266,11.3824236 C24.4028266,11.6170533 24.4028266,10.8847078 24.4028266,9.18538717 C24.4028266,6.63640617 18.9400678,4.5700488 12.2014133,4.5700488 C5.4627588,4.5700488 0,6.63640617 0,9.18538717 C0,9.9949637 0,10.7273092 0,11.3824236" id="Oval-Copy-13" transform="translate(12.201413, 7.997585) scale(1, -1) translate(-12.201413, -7.997585) "></path>
                    </g>
                    <g id="Group-16-Copy-4" transform="translate(0.243985, 44.272348)" stroke-linecap="round" stroke-width="1.21">
                        <path d="M23.5303188,6.42663112 C24.093154,5.93388991 24.4028266,5.3959084 24.4028266,4.83252957 C24.4028266,2.46630933 18.9400678,0.548108823 12.2014133,0.548108823 C5.4627588,0.548108823 0,2.46630933 0,4.83252957 C0,5.38353684 0.29622135,5.91024998 0.83579576,6.39410473" id="Oval-Copy-3" transform="translate(12.201413, 3.487370) scale(1, -1) translate(-12.201413, -3.487370) "></path>
                        <path d="M24.4028266,8.52881171 C24.4028266,8.74877709 24.4028266,8.06220322 24.4028266,6.4690901 C24.4028266,4.07942041 18.9400678,2.14221037 12.2014133,2.14221037 C5.4627588,2.14221037 0,4.07942041 0,6.4690901 C0,7.2280681 0,7.91464197 0,8.52881171" id="Oval-Copy-13" transform="translate(12.201413, 5.355526) scale(1, -1) translate(-12.201413, -5.355526) "></path>
                    </g>
                    <g id="Group-21-Copy-5" transform="translate(31.047410, 21.620221) rotate(7.000000) translate(-31.047410, -21.620221) translate(17.110658, 2.273383)">
                        <path d="M13.2893083,38.1229944 C23.9279574,37.4330079 28.6717349,34.1321399 27.5206407,28.2203904 C26.2339738,21.6123713 22.8070163,16.8874697 17.2397682,14.0456856 L21.70177,4.39922073 L17.226881,6.68721294 C16.3210755,7.15034753 15.2389622,7.10571034 14.3743778,6.56954716 L14.1368149,6.42222496 C13.1966607,5.83919794 12.0069147,5.8409709 11.0685023,6.42679736 L9.08846823,7.66288115 C8.23890664,8.19324037 7.17601796,8.24841043 6.27611239,7.80885867 L1.37192793,5.41344854 L4.3833355,13.4408694 C0.57565321,22.9903658 -0.599884211,29.3048576 0.856723235,32.384345" id="Path-6" stroke-width="1.21" stroke-linecap="round" stroke-linejoin="round"></path>
                        <g id="Group" transform="translate(11.756053, 27.323415) rotate(10.000000) translate(-11.756053, -27.323415) translate(6.376050, 22.562947)" stroke-width="1.21">
                            <ellipse id="Oval-Copy-3" cx="4.18444633" cy="4.16540906" rx="4.18444633" ry="4.16540906"></ellipse>
                            <path d="M5.81884549,3.14367151 L6.16790588,3.47018258 C7.15461985,4.39315476 7.21330561,5.93882508 6.29941798,6.93395899 L6.14602453,7.10098939 C5.3008705,8.02127917 5.30525971,9.43667112 6.15610516,10.3517015" id="Path-9" stroke-linecap="round" transform="translate(6.231607, 6.747687) rotate(110.000000) translate(-6.231607, -6.747687) "></path>
                        </g>
                        <path d="M5.07432933,14.1398571 C8.60020054,16.4737426 11.7911534,17.0291979 14.647188,15.8062231" id="Path-7" stroke-width="1.452" stroke-linecap="round" stroke-linejoin="round"></path>
                        <path d="M1.31096038,5.25065441 C1.02830303,2.67771118 2.61490752,1.79512878 6.07077384,2.60290721 C11.2545733,3.81457487 12.2559355,-0.763075404 16.5960893,1.67141202" id="Path-7-Copy" stroke-width="1.452" stroke-linecap="round" stroke-linejoin="round"></path>
                    </g>
                    <g id="Group-16-Copy-8" transform="translate(0.243985, 49.984909)" stroke-linecap="round" stroke-width="1.21">
                        <path d="M23.5303188,6.42663112 C24.093154,5.93388991 24.4028266,5.3959084 24.4028266,4.83252957 C24.4028266,2.46630933 18.9400678,0.548108823 12.2014133,0.548108823 C5.4627588,0.548108823 0,2.46630933 0,4.83252957 C0,5.38353684 0.29622135,5.91024998 0.83579576,6.39410473" id="Oval-Copy-3" transform="translate(12.201413, 3.487370) scale(1, -1) translate(-12.201413, -3.487370) "></path>
                        <path d="M24.4028266,8.52881171 C24.4028266,8.74877709 24.4028266,8.06220322 24.4028266,6.4690901 C24.4028266,4.07942041 18.9400678,2.14221037 12.2014133,2.14221037 C5.4627588,2.14221037 0,4.07942041 0,6.4690901 C0,7.2280681 0,7.91464197 0,8.52881171" id="Oval-Copy-13" transform="translate(12.201413, 5.355526) scale(1, -1) translate(-12.201413, -5.355526) "></path>
                    </g>
                </g>
                <g id="Group-21" transform="translate(48.572303, 23.486902)" stroke="#000000" stroke-linecap="round" stroke-width="1.936">
                    <path d="M17.6339546,8.85097521 C14.3968808,9.25592179 12.147701,9.45839508 10.8864151,9.45839508 C9.62512929,9.45839508 6.05290883,9.25592179 0.169753767,8.85097521" id="Path-3-Copy-88"></path>
                    <path d="M7.83767884,17.478557 L9.96602953,0.223393401" id="Path-3-Copy-91"></path>
                </g>
                <g id="Group-21-Copy-3" transform="translate(130.562302, 29.945799) rotate(-14.000000) translate(-130.562302, -29.945799) translate(122.894173, 21.138211)" stroke="#000000" stroke-linecap="round" stroke-width="1.936">
                    <path d="M15.2827606,8.85097521 C12.4772967,9.25592179 10.5280075,9.45839508 9.43489313,9.45839508 C8.34177872,9.45839508 5.24585432,9.25592179 0.147119931,8.85097521" id="Path-3-Copy-88"></path>
                    <path d="M6.79265499,17.478557 L8.63722559,0.223393401" id="Path-3-Copy-91"></path>
                </g>
                <g id="Group-21-Copy-2" transform="translate(199.575467, 25.835592)" stroke="#000000" stroke-linecap="round" stroke-width="1.936">
                    <path d="M15.9822193,0.79864464 C12.2707287,0.998118325 9.75713636,1.09785517 8.44144209,1.09785517 C7.12574783,1.09785517 4.37095929,0.898381483 0.177076479,0.499434113" id="Path-3-Copy-88"></path>
                    <path d="M15.6011403,8.09989862 L0.177076479,6.89309064" id="Path-3-Copy-92"></path>
                </g>
            </g>
        </g>
    </g>
</svg>