<?xml version="1.0" encoding="UTF-8"?>
<svg width="213px" height="176px" viewBox="0 0 213 176" version="1.1" xmlns="http://www.w3.org/2000/svg" xmlns:xlink="http://www.w3.org/1999/xlink">
    <!-- Generator: Sketch 49.2 (51160) - http://www.bohemiancoding.com/sketch -->
    <title>Group 40</title>
    <desc>Created with Sketch.</desc>
    <defs></defs>
    <g id="Economic-Model-1.0" stroke="none" stroke-width="1" fill="none" fill-rule="evenodd" stroke-linecap="round">
        <g id="Economic-Model" transform="translate(-958.000000, -6539.000000)" stroke="#000000">
            <g id="Group-40" transform="translate(958.000000, 6537.000000)">
                <g id="Group-3" transform="translate(177.195238, 37.296288) rotate(20.000000) translate(-177.195238, -37.296288) translate(142.195238, 18.858788)" stroke-linejoin="round">
                    <polyline id="Path-7-Copy-19" stroke-width="1.2" points="5.79249435 12.7130195 0 15.5687867 38.9172704 20 66.875 4.53167783 30.5519021 0 8.53373283 11.0203915"></polyline>
                    <path d="M13.75,17.4980042 L16.2229603,33.0960133 C22.6705207,36.6555189 30.5509147,37.3446349 39.8641424,35.1633612 C49.17737,32.9820876 55.2643226,29.3859672 58.125,24.375 L57.1909719,10.625" id="Path-7-Copy-20" stroke-width="1.2"></path>
                    <path d="M16.875,18.125 L18.125,29.375" id="Path-7-Copy-21" stroke-width="1.2"></path>
                    <path d="M63.1484714,6.71519269 L68.2610749,29.9776359" id="Path-7-Copy-22" stroke-width="1.2"></path>
                    <ellipse id="Oval-Copy-3" cx="68.7376519" cy="31.2210815" rx="1.25" ry="1.32063075"></ellipse>
                </g>
                <path d="M150.396774,39.6355037 C135.507919,37.8913268 118.031779,36.8869908 99.3395522,36.8869908 C94.2389382,36.8869908 89.2288739,36.9617736 84.3372197,37.1059652 M99.3395522,74.8869908 C153.7396,74.8869908 197.839552,66.380401 197.839552,55.8869908 M25.4090826,43.331458 C10.1164176,46.6793293 0.839552239,51.0741863 0.839552239,55.8869908 C0.839552239,64.9243267 33.5499381,72.4879725 77.3790425,74.4130381" id="Oval-Copy-3" stroke-width="1.2" stroke-linejoin="round"></path>
                <g id="Group-4" transform="translate(33.000000, 0.000000)">
                    <g id="Group-17">
                        <g id="Group-16-Copy-3" transform="translate(32.705998, 47.753866)" stroke-linejoin="round">
                            <path d="M13.1573939,9.90127031 C20.4240219,9.90127031 26.3147878,7.68479545 26.3147878,4.95063515 C26.3147878,2.21647486 20.4240219,0 13.1573939,0 C5.8907659,0 0,2.21647486 0,4.95063515 C0,6.25322157 1.33701694,7.43830982 3.52285258,8.32220916" id="Oval-Copy-3" transform="translate(13.157394, 4.950635) scale(1, -1) translate(-13.157394, -4.950635) "></path>
                            <path d="M26.3147878,12.3303336 C26.3147878,12.5845029 26.3147878,11.7911689 26.3147878,9.95033152 C26.3147878,7.18907546 20.4240219,4.95063515 13.1573939,4.95063515 C5.8907659,4.95063515 0,7.18907546 0,9.95033152 C0,10.8273283 0,11.6206623 0,12.3303336" id="Oval-Copy-13" transform="translate(13.157394, 8.663612) scale(1, -1) translate(-13.157394, -8.663612) "></path>
                        </g>
                        <g id="Group-16-Copy-5" transform="translate(0.199495, 38.471426)">
                            <path d="M13.1573939,9.90127031 C20.4240219,9.90127031 26.3147878,7.68479545 26.3147878,4.95063515 C26.3147878,2.21647486 20.4240219,-6.39488462e-14 13.1573939,-6.39488462e-14 C5.8907659,-6.39488462e-14 0,2.21647486 0,4.95063515 C0,6.25322157 1.33701694,7.43830982 3.52285258,8.32220916" id="Oval-Copy-3" stroke-linejoin="round" transform="translate(13.157394, 4.950635) scale(1, -1) translate(-13.157394, -4.950635) "></path>
                            <g id="Group" transform="translate(6.760563, 1.690141)" stroke-width="0.8">
                                <ellipse id="Oval-Copy-3" transform="translate(5.746479, 3.283702) rotate(-1.000000) translate(-5.746479, -3.283702) " cx="5.74647887" cy="3.28370221" rx="5.07042254" ry="1.73843058"></ellipse>
                                <path d="M7.95789847,-0.657628656 L7.95789847,-0.657628656 C8.93877622,0.120229911 9.51898895,1.29707214 9.53874274,2.54878892 L9.57179773,4.64334824 C9.5891038,5.73996246 10.0567893,6.78116201 10.8650514,7.52249502" id="Path-9" transform="translate(9.411475, 3.432433) rotate(110.000000) translate(-9.411475, -3.432433) "></path>
                            </g>
                            <path d="M26.3147878,12.3303336 C26.3147878,12.5845029 26.3147878,11.7911689 26.3147878,9.95033152 C26.3147878,7.18907546 20.4240219,4.95063515 13.1573939,4.95063515 C5.8907659,4.95063515 0,7.18907546 0,9.95033152 C0,10.8273283 0,11.6206623 0,12.3303336" id="Oval-Copy-13" stroke-linejoin="round" transform="translate(13.157394, 8.663612) scale(1, -1) translate(-13.157394, -8.663612) "></path>
                        </g>
                        <g id="Group-16-Copy-4" transform="translate(0.199495, 47.753866)" stroke-linejoin="round">
                            <path d="M25.3739191,6.96183069 C25.9808524,6.42805477 26.3147878,5.84527102 26.3147878,5.23497491 C26.3147878,2.67169963 20.4240219,0.593754449 13.1573939,0.593754449 C5.8907659,0.593754449 0,2.67169963 0,5.23497491 C0,5.83186918 0.31943029,6.40244615 0.90128035,6.92659555" id="Oval-Copy-3" transform="translate(13.157394, 3.777793) scale(1, -1) translate(-13.157394, -3.777793) "></path>
                            <path d="M26.3147878,9.23907751 C26.3147878,9.47736125 26.3147878,8.73361061 26.3147878,7.00782557 C26.3147878,4.41914802 20.4240219,2.32061023 13.1573939,2.32061023 C5.8907659,2.32061023 0,4.41914802 0,7.00782557 C0,7.83001005 0,8.57376069 0,9.23907751" id="Oval-Copy-13" transform="translate(13.157394, 5.801526) scale(1, -1) translate(-13.157394, -5.801526) "></path>
                        </g>
                        <g id="Group-21-Copy-5" transform="translate(32.763473, 23.309176) rotate(13.000000) translate(-32.763473, -23.309176) translate(18.397276, 3.027486)" stroke-linejoin="round">
                            <path d="M16.8812604,40.1489472 C24.5421206,39.7845129 28.6755302,37.2151974 28.4368674,31.0150627 C28.1923876,24.6638125 24.9102664,19.0891368 18.5905038,14.2910357 L23.4021035,3.84122871 L18.2133087,6.5063631 C17.4624549,6.89202616 16.5642013,6.85488606 15.8477479,6.40855423 L14.8617973,5.79433265 C14.0827888,5.30903057 13.0952187,5.3105052 12.3176629,5.79813153 L9.46019848,7.59012501 C8.75619622,8.03162393 7.87390411,8.07753041 7.12788417,7.7114775 L1.47941847,4.9399198 L4.72676979,13.6358515 C0.620755634,23.9806146 -0.646885134,30.8209672 0.923847493,34.1569094" id="Path-6"></path>
                            <g id="Group" transform="translate(12.388278, 28.535755) rotate(10.000000) translate(-12.388278, -28.535755) translate(6.895320, 23.465333)">
                                <circle id="Oval-Copy-3" cx="4.51229767" cy="4.51229767" r="4.51229767"></circle>
                                <path d="M6.27475198,3.40547145 L6.65049683,3.7585495 C7.71628663,4.76004554 7.77976321,6.43198416 6.79297732,7.511408 L6.62752001,7.6923982 C5.7150728,8.69050455 5.71981826,10.2213444 6.63843595,11.2137747" id="Path-9" transform="translate(6.719853, 7.309623) rotate(110.000000) translate(-6.719853, -7.309623) "></path>
                            </g>
                            <path d="M5.47190299,14.3930497 C9.27402617,16.9212974 12.7149902,17.5230102 15.794795,16.198188" id="Path-7"></path>
                            <path d="M1.41367412,4.76356843 C1.10887057,1.9763546 2.8197855,1.02027215 6.54641891,1.89532108 C12.136369,3.20789448 13.2161879,-1.75097519 17.8963928,0.886252462" id="Path-7-Copy"></path>
                        </g>
                        <g id="Group-16-Copy-8" transform="translate(0.199495, 53.942160)" stroke-linejoin="round">
                            <path d="M25.3739191,6.96183069 C25.9808524,6.42805477 26.3147878,5.84527102 26.3147878,5.23497491 C26.3147878,2.67169963 20.4240219,0.593754449 13.1573939,0.593754449 C5.8907659,0.593754449 0,2.67169963 0,5.23497491 C0,5.83186918 0.31943029,6.40244615 0.90128035,6.92659555" id="Oval-Copy-3" transform="translate(13.157394, 3.777793) scale(1, -1) translate(-13.157394, -3.777793) "></path>
                            <path d="M26.3147878,9.23907751 C26.3147878,9.47736125 26.3147878,8.73361061 26.3147878,7.00782557 C26.3147878,4.41914802 20.4240219,2.32061023 13.1573939,2.32061023 C5.8907659,2.32061023 0,4.41914802 0,7.00782557 C0,7.83001005 0,8.57376069 0,9.23907751" id="Oval-Copy-13" transform="translate(13.157394, 5.801526) scale(1, -1) translate(-13.157394, -5.801526) "></path>
                        </g>
                    </g>
                </g>
                <path d="M144.561832,95.8010931 C146.729307,94.7387478 147.919776,93.5815931 147.919776,92.3708046 C147.919776,87.1954521 126.169669,83 99.3395522,83 C72.5094354,83 50.7593284,87.1954521 50.7593284,92.3708046 C50.7593284,93.6132836 52.0129303,94.7992846 54.2894672,95.8843132" id="Oval-Copy-5" stroke-width="1.2" stroke-linejoin="round" transform="translate(99.339552, 89.442157) scale(1, -1) translate(-99.339552, -89.442157) "></path>
                <path d="M122.286218,94.8092654 L122.286218,154.940868" id="Path-7-Copy-21" stroke-width="1.2" stroke-linejoin="round"></path>
                <path d="M85,157.656754 L85,136" id="Path-7-Copy-40" stroke-width="1.2" stroke-linejoin="round"></path>
                <path d="M136.812563,176.915868 L173.981281,176.915868" id="Path-7-Copy-42" stroke-width="1.2" stroke-linejoin="round"></path>
                <path d="M142.812563,162.915868 L156.981281,162.915868" id="Path-7-Copy-43" stroke-width="1.2" stroke-linejoin="round"></path>
                <path d="M28,163 L55.1687178,163" id="Path-7-Copy-44" stroke-width="1.2" stroke-linejoin="round"></path>
                <path d="M112,133.331341 L112,96" id="Path-7-Copy-41" stroke-width="1.2" stroke-linejoin="round"></path>
                <path d="M76.2862182,94.8092654 L76.2862182,154.940868" id="Path-7-Copy-39" stroke-width="1.2" stroke-linejoin="round"></path>
                <path d="M197.839552,84.8869908 C197.839552,84.8869908 197.839552,77.1295776 197.839552,75.3158348 C197.839552,64.8224246 153.7396,56.3158348 99.3395522,56.3158348 C44.9395044,56.3158348 0.839552239,64.8224246 0.839552239,75.3158348 L0.839552239,84.8869908" id="Oval-Copy-4" stroke-width="1.2" stroke-linejoin="round" transform="translate(99.339552, 70.601413) scale(1, -1) translate(-99.339552, -70.601413) "></path>
                <g id="Group-4" transform="translate(61.000000, 150.000000)" stroke-linejoin="round" stroke-width="1.2">
                    <path d="M61.6352316,14 C70.9664296,12.6313772 77,10.4552559 77,8.00461206 C77,3.86247644 59.7629629,0.504612062 38.5,0.504612062 C17.2370371,0.504612062 0,3.86247644 0,8.00461206 C0,9.96407464 3.85734014,11.7480314 10.1734725,13.0840378" id="Oval-Copy-16" transform="translate(38.500000, 7.252306) scale(1, -1) translate(-38.500000, -7.252306) "></path>
                    <path d="M77,25 L77,14.3150698 C77,10.2750683 59.7629629,7 38.5,7 C17.2370371,7 0,10.2750683 0,14.3150698 L0,25" id="Oval-Copy-6" transform="translate(38.500000, 16.000000) scale(1, -1) translate(-38.500000, -16.000000) "></path>
                </g>
            </g>
        </g>
    </g>
</svg>