<?xml version="1.0" encoding="UTF-8"?>
<svg width="134px" height="186px" viewBox="0 0 134 186" version="1.1" xmlns="http://www.w3.org/2000/svg" xmlns:xlink="http://www.w3.org/1999/xlink">
    <!-- Generator: Sketch 49.2 (51160) - http://www.bohemiancoding.com/sketch -->
    <title>Group 4 Copy</title>
    <desc>Created with Sketch.</desc>
    <defs></defs>
    <g id="Economic-Model" stroke="none" stroke-width="1" fill="none" fill-rule="evenodd">
        <g transform="translate(-995.000000, -1116.000000)" id="Group-4-Copy" stroke="#000000" stroke-width="1.2">
            <g transform="translate(994.000000, 1113.000000)">
                <g id="Group-17">
                    <g id="Group-16-Copy-3" transform="translate(97.035798, 66.422556)" stroke-linecap="round">
                        <path d="M18.3010885,13.7720301 C28.4085006,13.7720301 36.6021771,10.6890561 36.6021771,6.88601504 C36.6021771,3.08297395 28.4085006,0 18.3010885,0 C8.19367644,0 0,3.08297395 0,6.88601504 C0,8.69782895 1.85970456,10.3462105 4.90006132,11.5756576" id="Oval-Copy-3" transform="translate(18.301089, 6.886015) scale(1, -1) translate(-18.301089, -6.886015) "></path>
                        <path d="M36.6021771,17.1507008 C36.6021771,17.504234 36.6021771,16.4007574 36.6021771,13.8402711 C36.6021771,9.99954152 28.4085006,6.88601504 18.3010885,6.88601504 C8.19367644,6.88601504 0,9.99954152 0,13.8402711 C0,15.0601172 0,16.1635938 0,17.1507008" id="Oval-Copy-13" transform="translate(18.301089, 12.050526) scale(1, -1) translate(-18.301089, -12.050526) "></path>
                    </g>
                    <g id="Group-16-Copy-5" transform="translate(51.821344, 53.511278)" stroke-linecap="round">
                        <path d="M18.3010885,13.7720301 C28.4085006,13.7720301 36.6021771,10.6890561 36.6021771,6.88601504 C36.6021771,3.08297395 28.4085006,0 18.3010885,0 C8.19367644,0 0,3.08297395 0,6.88601504 C0,8.69782895 1.85970456,10.3462105 4.90006132,11.5756576" id="Oval-Copy-3" transform="translate(18.301089, 6.886015) scale(1, -1) translate(-18.301089, -6.886015) "></path>
                        <path d="M36.6021771,17.1507008 C36.6021771,17.504234 36.6021771,16.4007574 36.6021771,13.8402711 C36.6021771,9.99954152 28.4085006,6.88601504 18.3010885,6.88601504 C8.19367644,6.88601504 0,9.99954152 0,13.8402711 C0,15.0601172 0,16.1635938 0,17.1507008" id="Oval-Copy-13" transform="translate(18.301089, 12.050526) scale(1, -1) translate(-18.301089, -12.050526) "></path>
                    </g>
                    <g id="Group-16-Copy-4" transform="translate(51.821344, 66.422556)" stroke-linecap="round">
                        <path d="M35.2934892,9.68345865 C36.1376944,8.94101068 36.6021771,8.13039598 36.6021771,7.28151334 C36.6021771,3.71616232 28.4085006,0.825874244 18.3010885,0.825874244 C8.19367644,0.825874244 0,3.71616232 0,7.28151334 C0,8.11175488 0.444306985,8.90539074 1.25362299,9.63444884" id="Oval-Copy-3" transform="translate(18.301089, 5.254666) scale(1, -1) translate(-18.301089, -5.254666) "></path>
                        <path d="M36.6021771,12.8509625 C36.6021771,13.1823998 36.6021771,12.1478905 36.6021771,9.74743458 C36.6021771,6.14675062 28.4085006,3.22781955 18.3010885,3.22781955 C8.19367644,3.22781955 0,6.14675062 0,9.74743458 C0,10.8910403 0,11.9255496 0,12.8509625" id="Oval-Copy-13" transform="translate(18.301089, 8.069549) scale(1, -1) translate(-18.301089, -8.069549) "></path>
                    </g>
                    <g id="Group-21-Copy-5" transform="translate(97.180195, 32.220380) rotate(13.000000) translate(-97.180195, -32.220380) translate(77.180195, 4.220380)">
                        <path d="M23.4807473,55.8446028 C34.1365111,55.3376982 39.8858179,51.7639457 39.5538532,43.139957 C39.2137976,34.3057766 34.6485782,26.5517613 25.858195,19.8779114 L32.5508206,5.34290204 L24.8603092,9.29299976 C24.1094553,9.67866283 23.2112017,9.64152273 22.4947483,9.19519089 L20.1740435,7.74945207 C19.3950349,7.26414999 18.4074648,7.26562463 17.629909,7.75325095 L12.7158456,10.8349935 C12.0118434,11.2764924 11.1295512,11.3223989 10.3835313,10.956346 L2.05777593,6.87111066 L6.57463272,18.9665922 C0.863431155,33.3554923 -0.899775609,42.8699828 1.28501243,47.5100638" id="Path-6" stroke-linecap="round" stroke-linejoin="round"></path>
                        <g id="Group" transform="translate(17.300845, 39.722750) rotate(10.000000) translate(-17.300845, -39.722750) translate(9.586559, 32.651322)">
                            <circle id="Oval-Copy-3" cx="6.27631579" cy="6.27631579" r="6.27631579"></circle>
                            <path d="M8.72777637,4.73679172 L9.25041329,5.22790058 C10.7328583,6.62091715 10.8211502,8.94647622 9.44859448,10.4478853 L9.218454,10.6996311 C7.94929863,12.0879328 7.95589926,14.2172326 9.23363737,15.5976392" id="Path-9" stroke-linecap="square" transform="translate(9.346883, 10.167215) rotate(110.000000) translate(-9.346883, -10.167215) "></path>
                        </g>
                        <path d="M7.61106507,20.0198063 C12.8995738,23.5364362 17.6857334,24.3733799 21.9695438,22.5306375" id="Path-7" stroke-linecap="round" stroke-linejoin="round"></path>
                        <path d="M1.96632976,6.62581726 C1.54236763,2.74898211 3.92214024,1.41913293 9.10564759,2.6362697 C16.8809086,4.46197487 18.3828672,-2.43549385 24.8927311,1.23272016" id="Path-7-Copy" stroke-linecap="round" stroke-linejoin="round"></path>
                    </g>
                    <g id="Group-16-Copy-8" transform="translate(51.821344, 75.030075)" stroke-linecap="round">
                        <path d="M35.2934892,9.68345865 C36.1376944,8.94101068 36.6021771,8.13039598 36.6021771,7.28151334 C36.6021771,3.71616232 28.4085006,0.825874244 18.3010885,0.825874244 C8.19367644,0.825874244 0,3.71616232 0,7.28151334 C0,8.11175488 0.444306985,8.90539074 1.25362299,9.63444884" id="Oval-Copy-3" transform="translate(18.301089, 5.254666) scale(1, -1) translate(-18.301089, -5.254666) "></path>
                        <path d="M36.6021771,12.8509625 C36.6021771,13.1823998 36.6021771,12.1478905 36.6021771,9.74743458 C36.6021771,6.14675062 28.4085006,3.22781955 18.3010885,3.22781955 C8.19367644,3.22781955 0,6.14675062 0,9.74743458 C0,10.8910403 0,11.9255496 0,12.8509625" id="Oval-Copy-13" transform="translate(18.301089, 8.069549) scale(1, -1) translate(-18.301089, -8.069549) "></path>
                    </g>
                    <g id="Group-21-Copy" transform="translate(21.994782, 60.697744) scale(-1, 1) translate(-21.994782, -60.697744) translate(0.780496, 29.840602)" stroke-linecap="round">
                        <g id="Group-16" transform="translate(2.153069, 0.000000)">
                            <path d="M18.3010885,13.7720301 C28.4085006,13.7720301 36.6021771,10.6890561 36.6021771,6.88601504 C36.6021771,3.08297395 28.4085006,0 18.3010885,0 C8.19367644,0 0,3.08297395 0,6.88601504 C0,8.69782895 1.85970456,10.3462105 4.90006132,11.5756576" id="Oval-Copy-3" transform="translate(18.301089, 6.886015) scale(1, -1) translate(-18.301089, -6.886015) "></path>
                            <path d="M36.6021771,17.1507008 C36.6021771,17.504234 36.6021771,16.4007574 36.6021771,13.8402711 C36.6021771,9.99954152 28.4085006,6.88601504 18.3010885,6.88601504 C8.19367644,6.88601504 0,9.99954152 0,13.8402711 C0,15.0601172 0,16.1635938 0,17.1507008" id="Oval-Copy-13" transform="translate(18.301089, 12.050526) scale(1, -1) translate(-18.301089, -12.050526) "></path>
                        </g>
                        <g id="Group-16-Copy" transform="translate(0.000000, 12.552632)">
                            <path d="M35.9598195,8.49039925 C36.3786241,7.94830306 36.6021771,7.37780551 36.6021771,6.78888981 C36.6021771,3.22353879 28.4085006,0.333250716 18.3010885,0.333250716 C8.19367644,0.333250716 0,3.22353879 0,6.78888981 C0,7.61913136 0.444306985,8.41276721 1.25362299,9.14182531 C1.45313523,9.32155242 2.08551781,9.62164573 3.15077071,10.0421053" id="Oval-Copy-3" transform="translate(18.301089, 5.187678) scale(1, -1) translate(-18.301089, -5.187678) "></path>
                            <path d="M36.6021771,13.2096091 C36.6021771,13.5410465 36.6021771,12.5065372 36.6021771,10.1060812 C36.6021771,6.50539724 28.4085006,3.58646617 18.3010885,3.58646617 C8.19367644,3.58646617 0,6.50539724 0,10.1060812 C0,11.2496869 0,12.2841962 0,13.2096091" id="Oval-Copy-13" transform="translate(18.301089, 8.428195) scale(1, -1) translate(-18.301089, -8.428195) "></path>
                        </g>
                        <g id="Group-16-Copy-2" transform="translate(2.153069, 21.160150)">
                            <path d="M33.6158057,10.0421053 C34.5122751,9.61256073 35.0715029,9.30017399 35.2934892,9.10494506 C36.1376944,8.3624971 36.6021771,7.5518824 36.6021771,6.70299976 C36.6021771,3.13764873 28.4085006,0.247360661 18.3010885,0.247360661 C8.19367644,0.247360661 0,3.13764873 0,6.70299976 C0,7.20442875 0.162066443,7.69250536 0.46872997,8.16106735" id="Oval-Copy-3" transform="translate(18.301089, 5.144733) scale(1, -1) translate(-18.301089, -5.144733) "></path>
                            <path d="M36.6021771,13.2096091 C36.6021771,13.5410465 36.6021771,12.5065372 36.6021771,10.1060812 C36.6021771,6.50539724 28.4085006,3.58646617 18.3010885,3.58646617 C8.19367644,3.58646617 0,6.50539724 0,10.1060812 C0,11.2496869 0,12.2841962 0,13.2096091" id="Oval-Copy-13" transform="translate(18.301089, 8.428195) scale(1, -1) translate(-18.301089, -8.428195) "></path>
                        </g>
                        <g id="Group-16-Copy-6" transform="translate(4.306138, 29.767669)">
                            <path d="M33.6158057,10.0421053 C34.5122751,9.61256073 35.0715029,9.30017399 35.2934892,9.10494506 C36.1376944,8.3624971 36.6021771,7.5518824 36.6021771,6.70299976 C36.6021771,3.13764873 28.4085006,0.247360661 18.3010885,0.247360661 C8.19367644,0.247360661 0,3.13764873 0,6.70299976 C0,7.20442875 0.162066443,7.69250536 0.46872997,8.16106735" id="Oval-Copy-3" transform="translate(18.301089, 5.144733) scale(1, -1) translate(-18.301089, -5.144733) "></path>
                            <path d="M36.6021771,13.2096091 C36.6021771,13.5410465 36.6021771,12.5065372 36.6021771,10.1060812 C36.6021771,6.50539724 28.4085006,3.58646617 18.3010885,3.58646617 C8.19367644,3.58646617 0,6.50539724 0,10.1060812 C0,11.2496869 0,12.2841962 0,13.2096091" id="Oval-Copy-13" transform="translate(18.301089, 8.428195) scale(1, -1) translate(-18.301089, -8.428195) "></path>
                        </g>
                        <g id="Group-16-Copy-7" transform="translate(20.112389, 54.054135) scale(-1, 1) translate(-20.112389, -54.054135) translate(1.469532, 46.982707)">
                            <path d="M33.6158057,10.0421053 C34.5122751,9.61256073 35.0715029,9.30017399 35.2934892,9.10494506 C36.1376944,8.3624971 36.6021771,7.5518824 36.6021771,6.70299976 C36.6021771,3.13764873 28.4085006,0.247360661 18.3010885,0.247360661 C8.19367644,0.247360661 0,3.13764873 0,6.70299976 C0,7.20442875 0.162066443,7.69250536 0.46872997,8.16106735" id="Oval-Copy-3" transform="translate(18.301089, 5.144733) scale(1, -1) translate(-18.301089, -5.144733) "></path>
                            <path d="M36.6021771,13.2096091 C36.6021771,13.5410465 36.6021771,12.5065372 36.6021771,10.1060812 C36.6021771,6.50539724 28.4085006,3.58646617 18.3010885,3.58646617 C8.19367644,3.58646617 0,6.50539724 0,10.1060812 C0,11.2496869 0,12.2841962 0,13.2096091" id="Oval-Copy-13" transform="translate(18.301089, 8.428195) scale(1, -1) translate(-18.301089, -8.428195) "></path>
                        </g>
                        <g id="Group-16-Copy-4" transform="translate(4.306138, 38.733835)">
                            <path d="M35.2934892,9.68345865 C36.1376944,8.94101068 36.6021771,8.13039598 36.6021771,7.28151334 C36.6021771,3.71616232 28.4085006,0.825874244 18.3010885,0.825874244 C8.19367644,0.825874244 0,3.71616232 0,7.28151334 C0,8.11175488 0.444306985,8.90539074 1.25362299,9.63444884" id="Oval-Copy-3" transform="translate(18.301089, 5.254666) scale(1, -1) translate(-18.301089, -5.254666) "></path>
                            <path d="M36.6021771,12.8509625 C36.6021771,13.1823998 36.6021771,12.1478905 36.6021771,9.74743458 C36.6021771,6.14675062 28.4085006,3.22781955 18.3010885,3.22781955 C8.19367644,3.22781955 0,6.14675062 0,9.74743458 C0,10.8910403 0,11.9255496 0,12.8509625" id="Oval-Copy-13" transform="translate(18.301089, 8.069549) scale(1, -1) translate(-18.301089, -8.069549) "></path>
                        </g>
                    </g>
                </g>
                <path d="M128,115 L128,152.798156" id="Path-7-Copy-10" stroke-linecap="round" stroke-linejoin="round"></path>
                <path d="M64,100 L64,127.536642" id="Path-7-Copy-12" stroke-linecap="round" stroke-linejoin="round"></path>
                <path d="M134,100 L134,118.118978" id="Path-7-Copy-14" stroke-linecap="round" stroke-linejoin="round"></path>
                <path d="M97,90.5664362 L97,115.327205" id="Path-7-Copy-18" stroke-linecap="round" stroke-linejoin="round"></path>
                <path d="M117,19 L117,28.059489" id="Path-7-Copy-17" stroke-linecap="round" stroke-linejoin="round"></path>
                <path d="M121,25 L121,49.9796817" id="Path-7-Copy-19" stroke-linecap="round" stroke-linejoin="round"></path>
                <path d="M128,92 L128,105.159353" id="Path-7-Copy-15" stroke-linecap="round" stroke-linejoin="round"></path>
                <path d="M16,100 L16,120.748348" id="Path-7-Copy-5" stroke-linecap="round" stroke-linejoin="round"></path>
                <path d="M56,112 L56,168.45534" id="Path-7-Copy-13" stroke-linecap="round" stroke-linejoin="round"></path>
                <path d="M56,174.010309 L56,188.45534" id="Path-7-Copy-16" stroke-linecap="round" stroke-linejoin="round"></path>
                <path d="M5,96 L5,111.67153" id="Path-7-Copy-4" stroke-linecap="round" stroke-linejoin="round"></path>
                <path d="M5,118.134252 L5,146.334498" id="Path-7-Copy-6" stroke-linecap="round" stroke-linejoin="round"></path>
            </g>
        </g>
    </g>
</svg>