<?xml version="1.0" encoding="UTF-8"?>
<svg width="357px" height="220px" viewBox="0 0 357 220" version="1.1" xmlns="http://www.w3.org/2000/svg" xmlns:xlink="http://www.w3.org/1999/xlink">
    <!-- Generator: Sketch 49.2 (51160) - http://www.bohemiancoding.com/sketch -->
    <title>Group 32</title>
    <desc>Created with Sketch.</desc>
    <defs></defs>
    <g id="Economic-Model" stroke="none" stroke-width="1" fill="none" fill-rule="evenodd">
        <g transform="translate(-139.000000, -5345.000000)" id="Group-32" stroke="#000000">
            <g transform="translate(140.000000, 5346.000000)">
                <path d="M119.5,211 C130.821837,211 140,201.821837 140,190.5 C140,179.178163 130.821837,170 119.5,170 C108.178163,170 99,179.178163 99,190.5 C99,195.893858 101.083152,200.801169 104.488813,204.461293" id="Oval-Copy-17" stroke-width="1.2" stroke-linecap="round"></path>
                <path d="M64.5,211 C75.8218374,211 85,201.821837 85,190.5 C85,179.178163 75.8218374,170 64.5,170 C53.1781626,170 44,179.178163 44,190.5 C44,195.893858 46.0831517,200.801169 49.4888132,204.461293" id="Oval-Copy-18" stroke-width="1.2" stroke-linecap="round" transform="translate(64.500000, 190.500000) rotate(60.000000) translate(-64.500000, -190.500000) "></path>
                <polyline id="Path-7-Copy-30" stroke-width="1.2" stroke-linecap="round" stroke-linejoin="round" points="169.816016 144.794431 169.816016 9.09494702e-13 0 9.09494702e-13"></polyline>
                <path d="M12.6756478,190.113349 L33.6829462,190.113349 L33.6829462,186.290188 C33.6829462,172.483069 44.8758274,161.290188 58.6829462,161.290188 L125.279627,161.290188 C139.086746,161.290188 150.279627,172.483069 150.279627,186.290188 L150.279627,190.113349 L175.126781,190.113349 L175.126781,152 L83,152" id="Path-7-Copy-31" stroke-width="1.2" stroke-linecap="round" stroke-linejoin="round"></path>
                <polyline id="Path-7-Copy-32" stroke-width="1.2" stroke-linecap="round" stroke-linejoin="round" points="175 144 255.069989 208.036471 258.587872 203.751341 178.684295 139.890421"></polyline>
                <g id="Group-21-Copy-4" transform="translate(221.761474, 144.037763) scale(-1, 1) rotate(-4.000000) translate(-221.761474, -144.037763) translate(208.261474, 130.037763)">
                    <path d="M11.4644897,9.55394981 C9.14438133,13.5284112 8.04379246,17.1965781 8.1627231,20.5584506 C8.28165374,23.9203231 10.3790608,25.7419691 14.4549442,26.0233884 C23.5528181,25.9663786 27.6663878,23.6904688 26.7956532,19.1956592 C25.9249186,14.7008496 23.605771,11.4869464 19.8382105,9.55394981 L22.8578105,2.99237327 L19.9646403,4.47922141 C19.2682282,4.8371191 18.4349626,4.80265628 17.7704828,4.38847383 L17.7704828,4.38847383 C17.1150677,3.97994152 16.284001,3.98118276 15.6298091,4.39167104 L14.5305107,5.08145194 C13.8262803,5.52333812 12.9435179,5.56928243 12.1972197,5.20289057 L9.09986241,3.68225641 L11.4644897,9.55394981 Z" id="Path-6" stroke-width="1.2" stroke-linecap="round" stroke-linejoin="round"></path>
                    <g id="Group" transform="translate(19.046043, 18.809290) scale(-1, 1) rotate(10.000000) translate(-19.046043, -18.809290) translate(14.546043, 14.809290)">
                        <circle id="Oval-Copy-3" cx="3.5" cy="3.5" r="3.5"></circle>
                        <path d="M4.86706187,2.64148134 L5.15851139,2.91534917 C5.98519982,3.69216763 6.03443595,4.98902028 5.26902753,5.82628407 L5.14068923,5.96667057 C4.43294221,6.74085979 4.43662307,7.92826808 5.14915627,8.69805457" id="Path-9" stroke-linecap="square" transform="translate(5.212308, 5.669768) rotate(110.000000) translate(-5.212308, -5.669768) "></path>
                    </g>
                    <path d="M9.80501569,3.03953328 C8.29988193,3.94879509 6.89539115,4.16385247 5.59154333,3.68470542 C4.28769551,3.20555836 3.29593129,3.94111878 2.61625068,5.89138669 L6.03284104,11.3806816 C4.26035325,13.9908671 3.10724987,17.3973432 2.57353091,21.6001099 C2.03981194,25.8028765 4.7718344,27.5284812 10.7695983,26.7769238" id="Path-6-Copy" stroke-width="1.2" stroke-linecap="round" stroke-linejoin="round" transform="translate(6.638855, 14.993735) rotate(-10.000000) translate(-6.638855, -14.993735) "></path>
                    <path d="M11.6054129,9.61800581 C13.991499,11.2055271 16.1509336,11.5833507 18.0837167,10.7514768" id="Path-7" stroke-width="1.2" stroke-linecap="round" stroke-linejoin="round"></path>
                    <path d="M5.49908367,11.5048634 C6.28219557,11.9794249 7.23888112,12.028451 8.36914033,11.6519417" id="Path-7-Copy-3" stroke-width="1.2" stroke-linecap="round" stroke-linejoin="round"></path>
                    <path d="M1.26191819,6.83139403 C1.72492724,7.13512781 2.79299468,7.28523784 4.46612052,7.28172412 L4.46612056,7.28174298 C4.66718475,7.28132073 4.8675051,7.30616676 5.06237358,7.35569715 L6.03690844,7.603398 C6.79420538,7.79588274 7.59779877,7.60765495 8.19083724,7.09887758 L9.80424717,5.71470691" id="Path-7-Copy-2" stroke-width="1.2" stroke-linecap="round" stroke-linejoin="round"></path>
                    <path d="M9.05860344,3.57152298 C8.86731886,1.82139334 9.94103218,1.22105611 12.2797434,1.77051129 C15.7878102,2.59469406 16.4654686,-0.519047936 19.4026095,1.13690332" id="Path-7-Copy" stroke-width="1.2" stroke-linecap="round" stroke-linejoin="round"></path>
                </g>
                <g id="Group-38" transform="translate(310.000000, 138.000000) scale(-1, 1) rotate(-10.000000) translate(-310.000000, -138.000000) translate(298.000000, 126.000000)" stroke-linecap="round">
                    <g id="Group-36" transform="translate(12.100000, 12.000000) scale(-1, 1) translate(-12.100000, -12.000000) translate(0.600000, -0.000000)">
                        <g id="Group-16" transform="translate(1.200000, -0.000000)">
                            <path d="M10.2,7.68 C15.8333044,7.68 20.4,5.96077344 20.4,3.84 C20.4,1.71922656 15.8333044,-9.09494702e-13 10.2,-9.09494702e-13 C4.56669555,-9.09494702e-13 -1.13686838e-12,1.71922656 -1.13686838e-12,3.84 C-1.13686838e-12,4.85036164 1.03649499,5.76958488 2.73101927,6.45518852" id="Oval-Copy-3" stroke-width="1.2" transform="translate(10.200000, 3.840000) scale(1, -1) translate(-10.200000, -3.840000) "></path>
                            <g id="Group" transform="translate(6.219487, 1.567444)" stroke-width="0.5">
                                <ellipse id="Oval-Copy-3" transform="translate(4.323161, 2.161581) rotate(-1.000000) translate(-4.323161, -2.161581) " cx="4.32316119" cy="2.16158059" rx="3.81455399" ry="1.1443662"></ellipse>
                                <path d="M5.98684491,-0.432900808 L5.98684491,-0.432900808 C6.71889511,0.075065224 7.16217997,0.903928697 7.17824775,1.79480961 L7.1993758,2.9662575 C7.21333074,3.73999174 7.57040578,4.46751149 8.1739391,4.95187389" id="Path-9" transform="translate(7.080392, 2.259487) rotate(110.000000) translate(-7.080392, -2.259487) "></path>
                            </g>
                            <path d="M20.4,10.8 C20.4,10.1971485 20.4,9.18179257 20.4,7.75393225 C20.4,5.61214176 15.8333044,3.87587752 10.2,3.87587752 C4.56669555,3.87587752 -6.82121026e-13,5.61214176 -6.82121026e-13,7.75393225 C-6.82121026e-13,8.43418185 -6.82121026e-13,9.44953777 -6.82121026e-13,10.8" id="Oval-Copy-13" stroke-width="1.2" transform="translate(10.200000, 7.337939) scale(1, -1) translate(-10.200000, -7.337939) "></path>
                        </g>
                        <g id="Group-16-Copy" transform="translate(-0.000000, 8.200000)" stroke-width="1.2">
                            <path d="M20.0745659,4.56689592 C20.2869795,4.27755601 20.4,3.97408974 20.4,3.66130675 C20.4,1.67308165 15.8333044,0.0613067533 10.2,0.0613067533 C4.56669555,0.0613067533 0,1.67308165 0,3.66130675 C0,4.1242926 0.185699864,5.16853547 1.38951743,5.6" id="Oval-Copy-3" transform="translate(10.200000, 2.830653) scale(1, -1) translate(-10.200000, -2.830653) "></path>
                            <path d="M20.4,8.6 C20.4,7.98482671 20.4,7.00793054 20.4,5.66931148 C20.4,3.6613829 15.8333044,2.03363518 10.2,2.03363518 C4.56669555,2.03363518 0,3.6613829 0,5.66931148 C0,6.30704549 0,7.28394166 0,8.6" id="Oval-Copy-13" transform="translate(10.200000, 5.316818) scale(1, -1) translate(-10.200000, -5.316818) "></path>
                        </g>
                        <g id="Group-16-Copy-2" transform="translate(1.200000, 14.200000)" stroke-width="1.2">
                            <path d="M18.9789912,5.6 C20.1751592,5.3110422 20.4,4.173059 20.4,3.69967791 C20.4,1.71145281 15.8333044,0.0996779091 10.2,0.0996779091 C4.56669555,0.0996779091 0,1.71145281 0,3.69967791 C0,3.99697963 0.102109417,4.28586408 0.294625866,4.562201" id="Oval-Copy-3" transform="translate(10.200000, 2.849839) scale(1, -1) translate(-10.200000, -2.849839) "></path>
                            <path d="M20.4,8.6 C20.4,7.98482671 20.4,7.00793054 20.4,5.66931148 C20.4,3.6613829 15.8333044,2.03363518 10.2,2.03363518 C4.56669555,2.03363518 0,3.6613829 0,5.66931148 C0,6.30704549 0,7.28394166 0,8.6" id="Oval-Copy-13" transform="translate(10.200000, 5.316818) scale(1, -1) translate(-10.200000, -5.316818) "></path>
                        </g>
                    </g>
                </g>
                <g id="Group-37" transform="translate(184.500000, 129.000000) rotate(21.000000) translate(-184.500000, -129.000000) translate(174.000000, 120.000000)" stroke-linecap="round" stroke-width="1.2">
                    <g id="Group-16-Copy-5">
                        <path d="M10.2,7.68 C15.8333044,7.68 20.4,5.96077344 20.4,3.84 C20.4,1.71922656 15.8333044,0 10.2,0 C4.56669555,0 0,1.71922656 0,3.84 C0,4.85036164 1.03649499,5.76958488 2.73101927,6.45518852" id="Oval-Copy-3" transform="translate(10.200000, 3.840000) scale(1, -1) translate(-10.200000, -3.840000) "></path>
                        <path d="M20.4,10.8 C20.4,10.1971485 20.4,9.18179257 20.4,7.75393225 C20.4,5.61214176 15.8333044,3.87587752 10.2,3.87587752 C4.56669555,3.87587752 0,5.61214176 0,7.75393225 C0,8.43418185 0,9.44953777 0,10.8" id="Oval-Copy-13" transform="translate(10.200000, 7.337939) scale(1, -1) translate(-10.200000, -7.337939) "></path>
                    </g>
                    <g id="Group-16-Copy-4" transform="translate(0.000000, 8.400000)">
                        <path d="M19.6706108,5.4 C20.1411234,4.98597242 20.4,4.53393151 20.4,4.06055042 C20.4,2.07232532 15.8333044,0.460550417 10.2,0.460550417 C4.56669555,0.460550417 0,2.07232532 0,4.06055042 C0,4.52353627 0.247631786,4.96610888 0.698699122,5.37266958" id="Oval-Copy-3" transform="translate(10.200000, 2.930275) scale(1, -1) translate(-10.200000, -2.930275) "></path>
                        <path d="M20.4,8.4 C20.4,7.78482671 20.4,6.80793054 20.4,5.46931148 C20.4,3.4613829 15.8333044,1.83363518 10.2,1.83363518 C4.56669555,1.83363518 0,3.4613829 0,5.46931148 C0,6.10704549 0,7.08394166 0,8.4" id="Oval-Copy-13" transform="translate(10.200000, 5.116818) scale(1, -1) translate(-10.200000, -5.116818) "></path>
                    </g>
                </g>
                <g id="Group-22-Copy-2" transform="translate(260.944291, 170.058046) scale(-1, 1) rotate(7.000000) translate(-260.944291, -170.058046) translate(232.444291, 123.058046)" stroke-linecap="round" stroke-width="1.2">
                    <polyline id="Path-3-Copy-30" stroke-linejoin="round" points="15.2242669 68.8574177 7.79564991 84.1510321 0.914724956 82.3491607 6.34571886 67.1984934 2.65514509 57.4710654 3.41850739 45.8504672"></polyline>
                    <polygon id="Path-3-Copy-54" stroke-linejoin="round" points="1.00980129 85.1711882 6.44106044 86.5975846 7.37937431 91.8621646 8.38156459 93.2869339 4.11308819 93.2869339 1.00980129 89.3691625"></polygon>
                    <path d="M26.1444045,61.2636365 L11.5350693,60.4064097" id="Path-3-Copy-48"></path>
                    <polyline id="Path-3-Copy-51" stroke-linejoin="round" points="33.1032154 29.3024507 36.3200493 28.9074731 43.9534813 25.491948 42.1823259 22.8009929 34.2038752 24.9343871 24.2531685 23.0657886"></polyline>
                    <polyline id="Path-3-Copy-60" stroke-linejoin="round" points="19.5518268 16.8331246 22.0932196 17.6364155 24.7187665 16.9818494 25.399931 13.6106039 26.8417186 12.7363997 25.6986011 6.13746415"></polyline>
                    <polyline id="Path-3-Copy-53" stroke-linejoin="round" points="21.0759426 8.32592806 24.358865 8.02524058 24.6111436 6.04080281 29.0893527 6.63735716 29.7150745 2.23407181 20.6311506 0.422385947 17.7583055 0.775126969 15.5870039 0.054474246 15.2782357 2.6202312 13.7192086 3.29278628 13.92118 4.93771188 13.3521793 7.44626182 13.8306275 11.3429101 15.816006 13.5449319"></polyline>
                    <polyline id="Path-3-Copy-52" stroke-linejoin="round" points="48.4478747 37.3429548 56.3058015 36.3781227 55.0132083 34.3123769 49.8843444 34.2412819"></polyline>
                    <polyline id="Path-3-Copy-62" stroke-linejoin="round" points="43.9710657 24.7185047 49.2560564 23.6419589 47.1202442 21.4316453 42.640332 22.9211079"></polyline>
                    <polyline id="Path-3-Copy-49" stroke-linejoin="round" points="23.9928908 61.7076981 27.6509431 73.2448368 35.7269327 68.5107714 32.7881375 53.4842924 17.6437022 49.5093826"></polyline>
                    <polyline id="Path-3-Copy-55" stroke-linejoin="round" points="34.846765 76.5854316 40.1388421 72.0935668 35.1668631 71.9666492 34.8677812 69.5308227"></polyline>
                    <path d="M21.0304124,47.4439248 L24.8208378,47.6170453 L23.2177314,34.5607913 L35.4063073,37.5648873 L48.2301831,37.845886 L49.6447292,33.0173536 L36.8544242,32.1819378 L22.7715586,21.8352566 L19.4769334,19.9237816 M14.243145,13.9410734 L5.39946689,35.0461063 L2.44160464,45.3453058 L16.182913,48.0954476" id="Path-3-Copy-50" stroke-linejoin="round"></path>
                </g>
                <g id="Group-22" transform="translate(300.000000, 133.000000)" stroke-linecap="round" stroke-width="1.2">
                    <path d="M31.0438653,74.5912156 L30.189463,56.9134295" id="Path-3-Copy-30"></path>
                    <polygon id="Path-3-Copy-54" stroke-linejoin="round" points="31.0438653 74.5912156 35.2758686 75.882938 36.2392049 79.0019891 34.1426302 80.4267583 30.4869883 79.8110468"></polygon>
                    <path d="M35.2251291,75.5594212 L35.5867905,54.3209025" id="Path-3-Copy-48"></path>
                    <polyline id="Path-3-Copy-51" stroke-linejoin="round" transform="translate(3.701339, 19.366632) rotate(-60.000000) translate(-3.701339, -19.366632) " points="4.45814096 22.7333882 5.2165201 19.462251 4.07497809 15.999876 2.18615813 17.5656772 2.51002236 22.2885797"></polyline>
                    <polygon id="Path-3-Copy-53" stroke-linejoin="round" points="31.9229222 22.362259 34.6746972 20.8927335 33.5386243 26.4110632 35.1645846 29.6968863 38.4886651 26.9193871 39.9610011 27.9033628 41.1948402 17.9881387 40.6908651 7.80493328 39.9610011 2.71964142 35.9281085 1.30269705 32.5286788 0.108317892 31.2313769 3.44098355 33.0133405 11.3251805"></polygon>
                    <polyline id="Path-3-Copy-52" stroke-linejoin="round" points="26.2506351 12.22127 21.4680035 10.9910441 22.2887872 13.1066099 25.1795749 14.3143425"></polyline>
                    <polyline id="Path-3-Copy-68" stroke-linejoin="round" points="29.2592181 12.7029277 27.1873588 12.0269302 25.0946511 14.6664438 29.2592181 16.3595953"></polyline>
                    <polyline id="Path-3-Copy-69" stroke-linejoin="round" points="31.0770738 3.93746079 30.307017 7.05205539 31.0770738 11.4794596 32.8297982 12.8574048"></polyline>
                    <polyline id="Path-3-Copy-49" points="39.8582359 72.6328848 42.8228252 60.9900517 42.8228252 51.8777988"></polyline>
                    <polyline id="Path-3-Copy-55" stroke-linejoin="round" points="37.605881 80.2141972 41.7209463 78.7833695 39.824772 77.0375755 39.8582359 72.6328848 35.8155825 73.2740117"></polyline>
                    <path d="M41.5156433,51.4026277 L45.9605634,51.8371825 L43.2,37.3971072 L44.119537,24.710742 L45.4285711,20.3945998 L44.119537,14.9737438 L43.2,12.9018196 L40.978104,12.1734144 M32.2428195,14.6258058 L19.3585959,22.0771173 L11.4863913,20.9496953 L7.44870645,19.3114867 L5.57523542,22.8581845 L12.8484525,26.2717924 L20.0425167,28.0436354 L28.4368051,25.0899783 L30.6767141,34.0122893 L24.9887585,59.5085341 L39.3073793,52.2480773" id="Path-3-Copy-50" stroke-linejoin="round"></path>
                </g>
                <path d="M141.104859,210.058903 L240.799623,210.058903" id="Path-7-Copy-33" stroke-width="1.2" stroke-linecap="round" stroke-linejoin="round"></path>
                <path d="M39.936748,210.058903 L0,210.058903" id="Path-7-Copy-35" stroke-width="1.2" stroke-linecap="round" stroke-linejoin="round"></path>
                <path d="M149.936748,39 L110,39" id="Path-7-Copy-37" stroke-width="1.2" stroke-linecap="round" stroke-linejoin="round"></path>
                <path d="M129.936748,49 L29.0153388,49" id="Path-7-Copy-38" stroke-width="1.2" stroke-linecap="round" stroke-linejoin="round"></path>
                <path d="M20.1749728,218 L313.713567,218" id="Path-7-Copy-34" stroke-width="1.2" stroke-linecap="round" stroke-linejoin="round"></path>
                <path d="M355.173846,218 L320.498187,218" id="Path-7-Copy-36" stroke-width="1.2" stroke-linecap="round" stroke-linejoin="round"></path>
            </g>
        </g>
    </g>
</svg>