<?xml version="1.0" encoding="UTF-8"?>
<svg width="183px" height="145px" viewBox="0 0 183 145" version="1.1" xmlns="http://www.w3.org/2000/svg" xmlns:xlink="http://www.w3.org/1999/xlink">
    <!-- Generator: Sketch 49.2 (51160) - http://www.bohemiancoding.com/sketch -->
    <title>Group 44</title>
    <desc>Created with Sketch.</desc>
    <defs>
        <path d="M101.479255,173.033271 C140.956157,173.033271 172.95851,141.014183 172.95851,101.516635 C172.95851,62.0190883 140.956157,30 101.479255,30 C62.0023525,30 30,62.0190883 30,101.516635 C30,136.658231 55.3328819,165.87992 88.7238594,171.897884" id="path-1"></path>
    </defs>
    <g id="Vision" stroke="none" stroke-width="1" fill="none" fill-rule="evenodd">
        <g transform="translate(-997.000000, -7750.000000)" id="Group-44">
            <g transform="translate(985.000000, 7721.000000)">
                <g id="Group-27" transform="translate(2.000000, 0.000000)">
                    <mask id="mask-2" fill="white">
                        <use xlink:href="#path-1"></use>
                    </mask>
                    <use id="Mask" stroke="#000000" stroke-width="1.2" stroke-linecap="round" stroke-linejoin="round" transform="translate(101.479255, 101.516635) rotate(-47.000000) translate(-101.479255, -101.516635) " xlink:href="#path-1"></use>
                    <g mask="url(#mask-2)" stroke="#000000" stroke-width="1.2">
                        <g transform="translate(-19.642487, -8.528497)">
                            <path d="M62.3472335,70.1272054 C64.118367,73.3818399 68.0090695,77.0227812 68.0090695,77.0227812 C68.0090695,77.0227812 69.0370026,80.1006804 64.8277856,80.1006804 C60.6185685,80.1006804 54.1295601,82.4639121 52.8728757,88.03349 C51.6161913,93.6030678 50.0052803,93.7566248 50.0052803,93.7566248 C50.0052803,93.7566248 44.678367,90.5976012 42.2315968,94.8363522 C39.7848265,99.0751032 37.8795309,98.5709729 42.0279406,101.958883 C46.1763503,105.346794 45.0461065,109.216622 49.9589509,107.989132 C54.8717953,106.761642 58.9236855,105.294642 65.0681192,107.781492 C71.2125529,110.268342 75.101325,110.881604 80.2670507,116.669445 C85.4327763,122.457286 90.5405902,122.536479 85.4038204,129.621345 C80.2670507,136.706211 78.8125012,134.618223 77.1475392,139.675945 C75.4825772,144.733666 71.2994205,145.311195 68.1837698,148.305072 C65.0681192,151.29895 70.3650174,158.559585 66.9656933,158.559585 C63.5663691,158.559585 60.2604811,155.24121 60.2604811,143.254111 C60.2604811,131.267012 53.4616449,128.092536 53.1672603,126.24599 C52.8728757,124.399444 54.3100516,117.666117 52.157666,115.099108 C50.0052803,112.5321 44.2585071,110.959831 40.9932511,106.459357 C37.7279952,101.958883 34.5515372,103.482863 32.3238663,102.720873 C30.0961954,101.958883 25.8686397,97.4361968 27.0230134,85.1748199 C28.177387,72.913443 3.60856264,79.04395 3.60856264,79.04395 C3.60856264,79.04395 -1.73989979,78.3030255 1.75431912,75.8239364 C5.24853802,73.3448474 5.56746791,68.7361154 5.56746791,66.5405392 C5.56746791,64.344963 7.8988701,56.3077035 12.3811948,57.4846115 C16.8635195,58.6615195 17.0925451,63.1260226 24.7082057,61.9919712 C32.3238663,60.8579198 44.82716,62.1774084 45.8490542,62.1774084 C46.8709484,62.1774084 52.157666,61.043357 55.9923798,65.2076641 C59.8270937,69.3719712 60.5761,66.8725708 62.3472335,70.1272054 Z" id="Path-20"></path>
                            <path d="M99.8216654,105.733054 C100.632988,109.64045 102.482666,119.320035 105.4612,117.782505 C108.439734,116.244974 114.526997,114.497386 116.552937,117.782505 C118.578877,121.067624 118.68319,129.939924 118.68319,129.939924 C118.68319,129.939924 123.596796,136.174092 125.676328,138.627786 C127.75586,141.08148 129.577978,138.627786 129.577978,136.416698 C129.577978,134.205611 130.274075,136.351329 131.425028,132.125261 C132.575981,127.899192 133.854056,127.725324 133.854056,124.885481 C133.854056,122.045639 136.338578,120.188899 137.542766,117.782505 C138.746954,115.376111 137.542766,109.604811 137.542766,108.551495 C137.542766,107.498179 137.628639,102.922448 143.125717,102.922448 C148.622796,102.922448 156.052625,105.380709 157.78362,108.250305 C159.514615,111.1199 159.326505,115.569528 162.095513,116.579345 C164.86452,117.589162 163.34795,114.76148 163.34795,111.242716 C163.34795,107.723952 165.723195,102.482846 165.870368,102.482846 C166.017542,102.482846 171.130605,104.712553 174.373297,105.222803 C177.615989,105.733054 181.338213,101.212777 181.338213,97.8431466 C181.338213,94.4735161 186.112094,93.0231227 188.451277,89.8991233 C190.790459,86.7751239 192.014631,84.4659962 193.8197,79.2551067 C195.62477,74.0442173 193.336269,75.9234906 195.300208,70.2700752 C197.264147,64.6166598 202.957132,65.5835888 205.610155,61.512155 C208.263178,57.4407212 203.125748,53.9356036 200.013661,48.6447866 C196.901573,43.3539696 200.547774,46.1972477 188.977593,46.1972477 C177.407411,46.1972477 176.099419,44.9905359 171.05848,44.9905359 C166.017542,44.9905359 163.257307,45.8707142 159.846974,43.6278678 C156.43664,41.3850215 153.971727,42.2310843 151.866463,45.4379355 C149.761198,48.6447866 157.117927,48.9761937 146.232932,53.7689254 C135.347936,58.561657 131.98926,57.1853428 129.494132,60.1650826 C126.999004,63.1448224 130.678985,63.6643517 123.615961,62.5882534 C116.552937,61.512155 115.705626,58.5918735 113.898607,63.0054364 C113.179836,64.7610035 112.24471,66.6829734 111.13224,68.4754872 C109.447919,71.1894218 107.357072,73.6066028 104.995094,74.7002085 C101.073064,76.5161245 98.4200416,76.5015036 98.4200416,79.7590405 C98.4200416,83.0165774 97.4122439,88.1153733 103.247529,88.1153733 C109.082815,88.1153733 108.817376,82.3752072 112.685156,82.3752072 C116.552937,82.3752072 120.28555,80.9472325 124.889841,79.3126156 C129.494132,77.6779988 130.407387,74.6514721 133.208558,78.5133397 C136.009729,82.3752072 135.928833,82.793365 135.928833,84.5098589 C135.928833,86.2263527 136.887898,84.8919518 133.191015,84.7009053 C129.494132,84.5098589 131.383996,80.7181717 127.499979,83.749572 C123.615961,86.7809723 125.963583,88.1153733 121.25826,88.1153733 C116.552937,88.1153733 119.253386,88.6163828 114.823559,88.6163828 C110.393732,88.6163828 108.602575,88.5331102 106.652989,89.7714341 C104.703403,91.009758 103.247529,91.5366643 103.247529,92.5611022 C103.247529,93.58554 106.159277,95.8011975 104.703403,97.8431466 C97.8172274,100.872268 99.5907112,104.62076 99.8216654,105.733054 Z" id="Path-21"></path>
                            <path d="M174.73537,113.486144 C174.73537,116.930409 174.416412,114.228041 177.671394,114.228041 C180.926376,114.228041 179.255431,114.624974 185.298606,118.017271 C191.341781,121.409567 190.47271,120.244753 196.288314,122.856625 C202.103918,125.468496 202.509783,121.687198 201.189154,119.319174 C199.868526,116.951151 199.312738,116.810344 194.008124,113.486144 C188.703511,110.161944 182.628679,107.523192 182.628679,109.86626 C182.628679,112.209329 181.318802,113.569473 180.138837,110.460316 C178.958872,107.351158 174.73537,110.041879 174.73537,113.486144 Z" id="Path-6"></path>
                            <path d="M50.4253051,172.690843 C38.6624537,180.112938 15.6143841,183.331365 32.7981369,190.132443 C49.9818897,196.933521 77.5085389,181.489283 97.5496525,183.70446 C117.590766,185.919637 113.93906,183.788034 132.483497,184.171801 C140.325506,184.334088 265.265583,218.582242 247.152019,187.878906 C238.391475,173.029373 231.593628,176.54017 219.961422,178.988916 C208.343563,181.434641 203.945153,175.28291 197.995815,175.28291 C192.046478,175.28291 183.038542,180.993524 180.459046,178.988916 C174.230157,174.148246 167.369514,172.205581 149.383812,169.333169 C144.369756,168.532398 134.442914,170.490489 125.958983,169.332586 C123.763386,169.032927 115.402804,162.729204 110.430945,161.869536 C109.41191,161.693339 107.571175,166.838989 105.219278,166.792934 C104.101071,166.771037 96.8708855,167.580109 91.2620402,166.792587 C85.6531949,166.005064 80.5390723,163.510876 81.1328972,164.90984 C83.7965403,171.18499 81.8346954,176.316789 75.1399946,169.331322 C70.5081138,164.498268 67.8497612,167.750287 62.5171035,170.505797 C57.1844459,173.261308 54.0497606,170.403894 50.4253051,172.690843 Z" id="Path-6-Copy-4"></path>
                            <path d="M190.391069,76.0239177 C192.987348,76.8497291 191.053086,79.1718453 193.43869,79.1718453 C195.824294,79.1718453 194.599645,79.4627607 199.028739,81.949004 C203.457833,84.4352473 202.820884,83.5815451 207.08319,85.495808 C211.345495,87.4100708 211.642957,84.6387249 210.675057,82.9031803 C209.707157,81.1676357 208.131526,80.8432836 206.459352,82.2862178 C204.115556,79.9639701 200.974944,77.8673739 200.974944,79.5846285 C200.974944,81.3018832 196.111906,78.6891753 195.2471,76.4104473 C194.382294,74.1317194 187.794791,75.1981063 190.391069,76.0239177 Z" id="Path-6-Copy" transform="translate(200.460502, 80.591532) rotate(-104.000000) translate(-200.460502, -80.591532) "></path>
                            <path d="M186.497762,135.277488 C184.439269,135.277488 181.924887,135.782964 181.222982,137.274907 C180.521077,138.76685 179.419832,140.889618 179.419832,140.889618 C179.419832,140.889618 177.616683,141.561254 179.419832,144.650083 C181.222982,147.738911 180.586953,153.298569 184.371643,153.298569 C188.156333,153.298569 194.69326,151.623559 194.69326,151.623559 L200.33415,152.456691 C200.33415,152.456691 203.70959,158.167351 203.70959,159.389356 C203.70959,160.611362 207.233106,161.403683 209.464744,162.695067 C211.696381,163.986452 213.64236,155.491882 213.64236,153.298569 C213.64236,151.105256 213.711152,146.591532 212.503805,143.440321 C211.296459,140.289109 208.865443,139.802289 207.492531,133.897485 C206.119619,127.99268 204.799758,125.790622 203.181412,127.575823 C201.563067,129.361023 196.384477,128.593189 195.371263,128.593189 C194.358048,128.593189 188.556256,135.277488 186.497762,135.277488 Z" id="Path-11"></path>
                            <path d="M102.846399,59.7383703 C104.160527,59.7383703 104.17057,60.952743 104.17057,60.952743 L104.17057,62.6543572 C104.17057,63.0786646 105.800501,64.2209984 106.575376,64.6693958 C107.35025,65.1177932 108.379343,63.4159242 108.379343,62.6543572 C108.379343,61.8927902 108.856049,57.968149 108.379343,55.9178696 C107.902638,53.8675903 107.444353,53.1029867 106.882427,53.722848 C106.320502,54.3427093 104.52238,54.0761001 104.17057,54.0761001 C103.818759,54.0761001 102.032448,59.7383703 102.846399,59.7383703 Z" id="Path-11-Copy"></path>
                            <path d="M44.6053597,16.7725684 C41.4130942,19.5080893 36.0875745,25.1932777 36.0875745,26.8589618 C36.0875745,28.5246458 42.2472225,32.3362757 42.2472225,32.3362757 C42.2472225,32.3362757 51.4468248,34.9526272 51.4468248,37.4184488 C51.4468248,39.8842705 53.8372162,40.7856574 55.4131902,45.6061954 C56.9891641,50.4267334 62.1408698,48.5316706 62.1408698,51.5969235 C62.1408698,54.6621764 59.0713492,52.2008348 62.7366757,58.035657 C66.4020023,63.8704792 64.0805989,58.3035642 66.460239,55.7624776 C68.839879,53.221391 72.794597,51.7555174 73.7469906,50.7672175 C74.6993842,49.7789176 78.2751158,54.6585923 78.2751158,45.3848807 C78.2751158,36.1111691 76.4375249,34.2609068 78.5089585,27.293527 C80.5803921,20.3261471 82.4627806,18.6810713 82.4627806,17.7268199 C82.4627806,16.7725684 81.6582185,10.6510227 81.6582185,10.6510227 C81.6582185,10.6510227 82.1214241,-1.45677102 76.2807338,0.146192273 C70.4400435,1.74915556 65.8769763,2.72580732 63.256326,4.89952948 C60.6356758,7.07325164 47.7976253,14.0370474 44.6053597,16.7725684 Z" id="Path-12"></path>
                        </g>
                    </g>
                </g>
                <path d="M69.2674377,172.835172 C76.5155465,185.417425 84.8075895,191.708551 94.1435669,191.708551 C117.451682,191.708551 136.346643,149.257869 136.346643,96.8922996 C136.346643,44.52673 117.451682,2.07604832 94.1435669,2.07604832 C83.5047141,2.07604832 73.7853034,10.9202766 66.3624989,25.5147046" id="Oval-Copy-6" stroke="#000000" stroke-width="1.5" stroke-linecap="round" stroke-linejoin="round" stroke-dasharray="2,4" transform="translate(101.354571, 96.892300) scale(-1, -1) rotate(70.000000) translate(-101.354571, -96.892300) "></path>
            </g>
        </g>
    </g>
</svg>