<?xml version="1.0" encoding="UTF-8"?>
<svg width="127px" height="103px" viewBox="0 0 127 103" version="1.1" xmlns="http://www.w3.org/2000/svg" xmlns:xlink="http://www.w3.org/1999/xlink">
    <!-- Generator: Sketch 49.2 (51160) - http://www.bohemiancoding.com/sketch -->
    <title>Group 11</title>
    <desc>Created with Sketch.</desc>
    <defs></defs>
    <g id="Vision" stroke="none" stroke-width="1" fill="none" fill-rule="evenodd">
        <g transform="translate(-1027.000000, -757.000000)" id="Group-24" stroke="#000000">
            <g transform="translate(950.000000, 723.000000)">
                <g id="Group-11" transform="translate(76.000000, 23.000000)">
                    <g id="Group-27" transform="translate(1.729730, 26.810811)" stroke-width="1.2">
                        <path d="M15.5436606,24.012664 C13.6178839,19.3854503 1.81324475,22.2966473 1.81324475,22.2966473 C1.81324475,22.2966473 -1.37809718,21.8597038 0.706847317,20.3977173 C2.79179181,18.9357308 2.98209217,16.2178356 2.98209217,14.9230444 C2.98209217,13.6282531 4.37320254,8.88846175 7.04773393,9.58251652 C9.72226532,10.2765713 9.85892127,12.9094107 14.4030641,12.2406296 C16.2072577,11.9750987 18.471184,11.937658 20.5835337,11.9890448" id="Path-20-Copy-2" stroke-linecap="round"></path>
                        <path d="M26.5534933,38.0106124 C27.2156729,39.0998215 27.6411837,39.8179653 29.4697795,39.3664116 C32.4011952,38.6425273 34.8188932,37.7773974 38.4851784,39.2439607 C42.1514637,40.7105239 44.4718318,41.0721813 47.5541376,44.4854293 C50.6364434,47.8986773 53.6841942,47.9453795 50.6191659,52.1235186 C47.5541376,56.3016577 46.6862312,55.0703141 45.692775,58.0529905 C44.6993188,61.035667 42.2032962,61.3762514 40.3442373,63.1418227 C38.4851784,64.907394 41.6457528,69.1891892 39.6174305,69.1891892 C37.5891082,69.1891892 35.6165377,67.2322527 35.6165377,60.163133 C35.6165377,53.0940133 31.559781,51.2219382 31.3841264,50.1329793 C31.2084718,49.0440205 32.0660117,45.0731937 30.7817176,43.5593587 C29.8688775,42.4833673 27.8725352,41.7037371 26.0944962,40.3897488" id="Path-20-Copy" stroke-linecap="round"></path>
                        <path d="M36.8616695,17.0381994 C37.9184765,18.9575463 40.2399964,21.1047088 40.2399964,21.1047088 C40.2399964,21.1047088 40.8533476,22.91983 38.3417752,22.91983 C35.8302028,22.91983 31.9583153,24.3134923 31.2084718,27.5980245 C30.4586284,30.8825567 29.4974235,30.9731134 29.4974235,30.9731134" id="Path-20-Copy-3" stroke-linecap="round"></path>
                        <path d="M58.8159609,37.7429692 C59.2967776,40.0704273 60.3929573,45.8361152 62.1581345,44.9202783 C63.9233117,44.0044415 67.5308234,42.9634826 68.7314619,44.9202783 C69.9321005,46.8770741 69.9939199,52.1618991 69.9939199,52.1618991 C69.9939199,52.1618991 72.9058843,55.8753087 74.1382833,57.3368625 C75.3706824,58.7984164 76.4505291,57.3368625 76.4505291,56.0198183 C76.4505291,54.702774 76.8630593,55.980881 77.5451519,53.4636044 C78.2272444,50.9463278 78.9846737,50.8427626 78.9846737,49.1511977 C78.9846737,47.4596328 80.457083,46.3536578 81.1707243,44.9202783 C81.8843657,43.4868989 81.1707243,40.0491989 81.1707243,39.4217865 C81.1707243,38.794374 81.2216152,36.0688195 84.4793647,36.0688195 C87.7371142,36.0688195 92.1402745,37.5330936 93.166119,39.242381 C94.1919636,40.9516683 94.0804838,43.6021089 95.7214885,44.2036108 C97.3624932,44.8051128 96.463724,43.1207912 96.463724,41.024824 C96.463724,38.9288568 97.8713721,35.8069688 97.958592,35.8069688 C98.0458119,35.8069688 101.075981,37.1351034 102.997707,37.4390363 C104.919432,37.7429692 107.125345,35.0504466 107.125345,33.0433112 C107.125345,31.0361758 109.954504,30.1722425 111.34078,28.3114185 C112.727056,26.4505944 113.452541,25.0751522 114.522284,21.9712628 C115.592028,18.8673734 114.235787,19.9867709 115.399682,16.619289 C116.563576,13.251807 119.937426,13.8277625 121.509695,11.402595 C123.081963,8.97742736 120.037354,6.88958856 118.193029,3.73808995 C116.348703,0.586591335 118.509562,2.28020251 111.652692,2.28020251 C104.795823,2.28020251 104.020663,1.5614193 101.033237,1.5614193 C98.0458119,1.5614193 96.4100058,2.0857014 94.3889303,0.749740029 C92.3678549,-0.58622134 90.9070662,-0.0822602499 89.6594174,1.82791485 C88.4117687,3.73808995 92.7716079,3.93549406 86.3208018,6.7903059 C79.8699957,9.64511774 77.8795339,8.82531007 76.4008391,10.6002053 C74.9221443,12.3751005 77.1030222,12.6845605 72.9172421,12.0435777 C68.7314619,11.402595 68.2293175,9.66311635 67.158419,12.2920747 C66.7324515,13.337786 66.178265,14.4826159 65.5189791,15.5503347 C64.520795,17.1669019 63.2816901,18.6067064 61.8819045,19.2581175 C59.5575811,20.3397759 57.9853127,20.3310669 57.9853127,22.2714332 C57.9853127,24.2117995 57.3880586,27.2489199 60.8462405,27.2489199 C64.3044225,27.2489199 64.1471143,23.8297645 66.4392881,23.8297645 C68.7314619,23.8297645 70.9435311,22.979185 73.6721851,22.0055183 C76.4008391,21.0318515 76.9420645,19.2290875 78.6021305,21.529426 C80.2621964,23.8297645 80.2142544,24.078842 80.2142544,25.1012792 C80.2142544,26.1237164 80.7826277,25.3288746 78.5917334,25.2150769 C76.4008391,25.1012792 77.5208349,22.8427439 75.2190385,24.648411 C72.9172421,26.454078 74.3085201,27.2489199 71.519991,27.2489199 C68.7314619,27.2489199 70.3318366,27.5473484 67.7065758,27.5473484 C65.0813149,27.5473484 64.0198166,27.4977467 62.8644279,28.2353598 C61.7090392,28.972973 60.8462405,29.286827 60.8462405,29.897038 C60.8462405,30.5072489 62.5718378,31.8270152 61.7090392,33.0433112 C57.6280651,34.8476209 58.6790899,37.0804266 58.8159609,37.7429692 Z" id="Path-21"></path>
                        <path d="M102.924115,42.426907 C102.924115,44.4440899 102.73061,42.8614095 104.705338,42.8614095 C106.680066,42.8614095 105.66634,43.0938788 109.332604,45.0806255 C112.998869,47.0673722 112.471622,46.3851824 115.999825,47.9148619 C119.528027,49.4445415 119.774256,47.2299704 118.973059,45.8431039 C118.171862,44.4562373 117.834678,44.3737719 114.616482,42.426907 C111.398287,40.4800422 107.712816,38.9346198 107.712816,40.3068709 C107.712816,41.679122 106.918142,42.4757098 106.202283,40.6547877 C105.486424,38.8338656 102.924115,40.4097241 102.924115,42.426907 Z" id="Path-6"></path>
                        <path d="M111.909158,19.6403841 C113.382046,20.1549511 111.806688,22.4146433 113.160059,22.4146433 C114.51343,22.4146433 114.304329,22.4251751 116.816987,23.9743651 C119.329645,25.5235552 118.960684,24.3495777 121.378722,25.542364 C123.796759,26.7351503 123.965512,25.0083115 123.416415,23.9268854 C122.867318,22.8454593 121.97345,22.643354 121.024814,23.5424531 C119.695161,22.0954495 117.913468,20.7890504 117.913468,21.85908 C117.913468,22.9291095 115.154631,21.3011188 114.66402,19.8812326 C114.173409,18.4613463 110.436269,19.1258171 111.909158,19.6403841 Z" id="Path-6-Copy" transform="translate(117.621622, 22.486486) rotate(-104.000000) translate(-117.621622, -22.486486) "></path>
                        <path d="M109.318198,55.1699634 C108.098267,55.1699634 106.608162,55.4747823 106.19219,56.3744729 C105.776218,57.2741635 105.123584,58.5542626 105.123584,58.5542626 C105.123584,58.5542626 104.054979,58.9592815 105.123584,60.8219469 C106.19219,62.6846123 105.815259,66.0372694 108.05819,66.0372694 C110.301122,66.0372694 114.175119,65.027183 114.175119,65.027183 L117.518096,65.5295894 C117.518096,65.5295894 119.518493,68.9733054 119.518493,69.710215 C119.518493,70.4471245 121.606644,70.9249203 122.929186,71.7036678 C124.251728,72.4824152 125.404979,67.3599095 125.404979,66.0372694 C125.404979,64.7146293 125.445747,61.9927049 124.730234,60.0924206 C124.014721,58.1921362 122.57402,57.8985678 121.760388,54.3377759 C120.946755,50.7769841 120.164562,49.4490703 119.205477,50.5256051 C118.246392,51.6021399 115.17739,51.1391104 114.576926,51.1391104 C113.976462,51.1391104 110.538129,55.1699634 109.318198,55.1699634 Z" id="Path-11"></path>
                        <path d="M59.7978708,10.7541061 C60.5612713,10.7541061 60.5671052,11.5022995 60.5671052,11.5022995 L60.5671052,12.5506897 C60.5671052,12.8121119 61.5139615,13.5159209 61.9640997,13.7921853 C62.4142379,14.0684497 63.0120566,13.0199026 63.0120566,12.5506897 C63.0120566,12.0814767 63.2889833,9.66344606 63.0120566,8.40023801 C62.7351299,7.13702995 62.4689039,6.66594615 62.1424714,7.04785206 C61.8160388,7.42975797 60.7714783,7.26549602 60.5671052,7.26549602 C60.3627321,7.26549602 59.3250321,10.7541061 59.7978708,10.7541061 Z" id="Path-11-Copy"></path>
                    </g>
                    <path d="M61.8378378,115.891892 C80.705079,115.891892 96,93.2399203 96,65.2972973 C96,37.3546743 80.705079,14.7027027 61.8378378,14.7027027 C42.9705967,14.7027027 27.6756757,37.3546743 27.6756757,65.2972973 C27.6756757,67.4251522 27.7643702,69.5223268 27.9365827,71.5811545" id="Oval" stroke-width="1.5" stroke-linecap="round" stroke-linejoin="round" stroke-dasharray="2,4" transform="translate(61.837838, 65.297297) scale(-1, -1) rotate(30.000000) translate(-61.837838, -65.297297) "></path>
                    <path d="M67.234823,82.6932668 C57.5923295,87.8188332 49.9574638,99.1839092 46.5495101,113.501707" id="Oval-Copy" stroke-width="1.2" stroke-linecap="round" stroke-linejoin="round" stroke-dasharray="2,4" transform="translate(56.892167, 98.097487) scale(-1, -1) rotate(30.000000) translate(-56.892167, -98.097487) "></path>
                    <path d="M23.0362769,95.4715598 C36.557377,88.7327489 46.295799,69.8047979 46.295799,47.5082388 C46.295799,25.7430664 37.016031,7.18784962 23.9964827,0.0473802924" id="Oval-Copy-2" stroke-width="1.5" stroke-linecap="round" stroke-linejoin="round" stroke-dasharray="2,4" transform="translate(34.666038, 47.759470) scale(-1, -1) rotate(30.000000) translate(-34.666038, -47.759470) "></path>
                </g>
            </g>
        </g>
    </g>
</svg>