<?xml version="1.0" encoding="UTF-8"?>
<svg width="96px" height="83px" viewBox="0 0 96 83" version="1.1" xmlns="http://www.w3.org/2000/svg" xmlns:xlink="http://www.w3.org/1999/xlink">
    <!-- Generator: Sketch 49.2 (51160) - http://www.bohemiancoding.com/sketch -->
    <title>Group 23</title>
    <desc>Created with Sketch.</desc>
    <defs></defs>
    <g id="Vision" stroke="none" stroke-width="1" fill="none" fill-rule="evenodd">
        <g transform="translate(-1036.000000, -975.000000)" id="Group-24" stroke="#000000">
            <g transform="translate(950.000000, 723.000000)">
                <g id="Group-23" transform="translate(83.000000, 236.000000)">
                    <g id="Group-6" transform="translate(38.000000, 37.000000)" stroke-width="1.5">
                        <path d="M4.21884749e-15,18.0894959 L-2.22044605e-16,15.6314165 C-1.19458742e-15,14.6691156 0.780099052,13.8890165 1.7424,13.8890165 L8.65086316,13.8890165 C9.61316411,13.8890165 10.3932632,14.6691156 10.3932632,15.6314165 L10.3932632,33.6772517 C10.3932632,34.6395526 9.61316411,35.4196517 8.65086316,35.4196517 L1.7424,35.4196517 C0.780099052,35.4196517 3.39892483e-16,34.6395526 2.22044605e-16,33.6772517 L2.22044605e-16,22.8524164" id="Rectangle-13" stroke-linecap="round"></path>
                        <path d="M10.6391714,14.6871232 C15.2716138,12.4393368 19.8177076,8.11286536 24.2774528,1.70770894 L24.2774766,1.70772557 C24.9037395,0.808276887 26.1405732,0.58681606 27.0400219,1.21307897 C27.3724075,1.44451049 27.6260217,1.77210422 27.7668067,2.15186771 C28.6337451,4.49040808 28.479538,7.08542778 27.3417468,9.3048386 L25.3201396,13.2482483 L35.0354174,12.2960585 C37.2340219,12.0805743 39.1910274,13.6882109 39.4065116,15.8868154 C39.4650807,16.4844012 39.388362,17.087506 39.1820458,17.6513967 L34.6827643,29.9485552 C33.4383547,33.3496988 30.0642626,35.4906092 26.4570202,35.1679092 L11.451361,33.8255194 C10.8523291,33.7719307 10.3932632,33.2699639 10.3932632,32.6685398 L10.3932632,15.4181438 C10.3829968,15.2523859 10.3829967,15.0855623 10.3932631,14.917673 L10.3932632,14.7112245 L10.6391714,14.6871232 Z" id="Combined-Shape" stroke-linejoin="round"></path>
                    </g>
                    <path d="M85.8144399,42.4065484 L80.8662832,46.6527626" id="Path-3-Copy-21" stroke-width="1.2" stroke-linecap="round"></path>
                    <path d="M86.1452896,50.7648576 L82.0640251,51.5042103" id="Path-3-Copy-93" stroke-width="1.2" stroke-linecap="round"></path>
                    <path d="M57.0286986,88.48856 C74.4331738,88.48856 88.5422887,74.3970547 88.5422887,57.014302 C88.5422887,39.6315493 74.4331738,25.540044 57.0286986,25.540044 C39.6242234,25.540044 25.5151085,39.6315493 25.5151085,57.014302 C25.5151085,65.2956518 28.7174299,72.8299927 33.9527773,78.449489" id="Oval-Copy-10" stroke-width="1.2" stroke-linecap="round" transform="translate(57.028699, 57.014302) rotate(-138.000000) translate(-57.028699, -57.014302) "></path>
                    <path d="M57.0286986,97.3994908 C79.360695,97.3994908 97.464355,79.3184259 97.464355,57.014302 C97.464355,34.7101782 79.360695,16.6291133 57.0286986,16.6291133 C34.6967022,16.6291133 16.5930422,34.7101782 16.5930422,57.014302 C16.5930422,67.6402514 20.7019986,77.3077003 27.4195673,84.5181775" id="Oval-Copy-20" stroke-width="1.2" stroke-linecap="round" transform="translate(57.028699, 57.014302) rotate(40.000000) translate(-57.028699, -57.014302) "></path>
                    <polyline id="Star" stroke-width="1.2" stroke-linecap="round" stroke-linejoin="round" points="17.2571185 86.916788 13.9860934 85.0650003 7.81434827 87.9946784 8.6934636 81.2196797 4 76.2553216 10.7150683 74.9978202 13.9860934 69 17.2571185 74.9978202 23.9721868 76.2553216 19.2787232 81.2196797 20.1578386 87.9946784"></polyline>
                </g>
            </g>
        </g>
    </g>
</svg>