<?xml version="1.0" encoding="UTF-8"?>
<svg width="238px" height="227px" viewBox="0 0 238 227" version="1.1" xmlns="http://www.w3.org/2000/svg" xmlns:xlink="http://www.w3.org/1999/xlink">
    <!-- Generator: Sketch 49.2 (51160) - http://www.bohemiancoding.com/sketch -->
    <title>Group 53</title>
    <desc>Created with Sketch.</desc>
    <defs></defs>
    <g id="Vision" stroke="none" stroke-width="1" fill="none" fill-rule="evenodd">
        <g transform="translate(-236.000000, -4162.000000)" id="Group-53" stroke="#000000">
            <g transform="translate(213.000000, 4129.000000)">
                <g id="Group-52" transform="translate(56.000000, 54.000000)">
                    <polyline id="Path-26" stroke-linecap="round" stroke-linejoin="round" transform="translate(125.188552, 32.795528) rotate(30.000000) translate(-125.188552, -32.795528) " points="122 40.5910567 128.377104 32.7955283 122 25"></polyline>
                    <path d="M29.6165712,142.932165 C67.1719342,142.932165 97.6165712,112.525525 97.6165712,75.0170353 C97.6165712,41.1896694 72.8544414,13.1385904 40.4462233,7.95847738" id="Oval-Copy-20" stroke-width="1.2" stroke-linecap="round" transform="translate(63.616571, 75.445321) rotate(-150.000000) translate(-63.616571, -75.445321) "></path>
                    <g id="Group-51" transform="translate(120.000000, 110.500000) scale(-1, -1) translate(-120.000000, -110.500000) translate(54.000000, 35.000000)" stroke-linecap="round">
                        <polyline id="Path-26-Copy" stroke-linejoin="round" transform="translate(125.188552, 32.795528) rotate(30.000000) translate(-125.188552, -32.795528) " points="122 40.5910567 128.377104 32.7955283 122 25"></polyline>
                        <path d="M29.6165712,142.932165 C67.1719342,142.932165 97.6165712,112.525525 97.6165712,75.0170353 C97.6165712,41.1896694 72.8544414,13.1385904 40.4462233,7.95847738" id="Oval-Copy-32" stroke-width="1.2" transform="translate(63.616571, 75.445321) rotate(-150.000000) translate(-63.616571, -75.445321) "></path>
                    </g>
                    <g id="Group-50" transform="translate(42.000000, 41.000000)">
                        <path d="M50.6635617,89.2430996 C71.9049279,89.2430996 89.1244574,71.9106076 89.1244574,50.5298952 C89.1244574,29.1491828 71.9049279,11.8166908 50.6635617,11.8166908 C29.4221955,11.8166908 12.202666,29.1491828 12.202666,50.5298952 C12.202666,60.7159204 16.1109528,69.983128 22.5004549,76.8950847" id="Oval-Copy-3" stroke-width="1.5" stroke-linecap="round" transform="translate(50.663562, 50.529895) rotate(-113.000000) translate(-50.663562, -50.529895) "></path>
                        <path d="M73.7247403,43.1047958 C52.4833742,43.1047958 35.2638446,60.4372878 35.2638446,81.8180002 C35.2638446,92.0040253 39.1721314,101.271233 45.5616336,108.18319" id="Oval-Copy-5" stroke-width="1.5" stroke-linecap="round" transform="translate(54.494292, 75.643993) rotate(-113.000000) translate(-54.494292, -75.643993) "></path>
                        <path d="M20.9054966,62.4670567 L34.1378562,69.1058423" id="Path-9-Copy-2" stroke-linecap="round" transform="translate(27.521676, 65.786449) rotate(110.000000) translate(-27.521676, -65.786449) "></path>
                        <path d="M53.931717,27.2452477 L72.7490101,36.6860412" id="Path-9-Copy-3" stroke-linecap="round" transform="translate(63.340364, 31.965644) rotate(110.000000) translate(-63.340364, -31.965644) "></path>
                        <path d="M27.5845265,67.2820251 L44.2584048,75.6474494" id="Path-9-Copy" stroke-linecap="round" transform="translate(35.921466, 71.464737) rotate(110.000000) translate(-35.921466, -71.464737) "></path>
                        <path d="M67.7041438,33.2504123 L79.0524189,38.9439369" id="Path-9-Copy-4" stroke-linecap="round" transform="translate(73.378281, 36.097175) rotate(110.000000) translate(-73.378281, -36.097175) "></path>
                        <g id="Group" transform="translate(51.650517, 52.820178) rotate(10.000000) translate(-51.650517, -52.820178) translate(39.150517, 41.820178)" stroke-width="1.2">
                            <circle id="Oval-Copy-3" cx="10.3448795" cy="10.3448795" r="10.3448795"></circle>
                            <path d="M14.3854768,7.80737319 L16.2279045,9.53865652 C18.1273789,11.3235452 18.2405083,14.3033116 16.4818364,16.2270849 L14.4514698,18.4480592 C12.7794589,20.277036 12.7881547,23.0822185 14.4714727,24.9007941 L15.2192575,25.7086647" id="Path-9" stroke-linecap="round" transform="translate(15.405914, 16.758019) rotate(110.000000) translate(-15.405914, -16.758019) "></path>
                        </g>
                    </g>
                </g>
                <g id="Group-57" transform="translate(147.500000, 147.000000) scale(-1, 1) translate(-147.500000, -147.000000) " stroke-width="1.2">
                    <path d="M147.663562,259.572259 C209.688245,259.572259 259.969186,208.961469 259.969186,146.529895 C259.969186,84.0983215 209.688245,33.4875312 147.663562,33.4875312 C85.6388783,33.4875312 35.3579377,84.0983215 35.3579377,146.529895 C35.3579377,176.273038 46.7701158,203.333238 65.4274302,223.516117" id="Oval-Copy-3" stroke-linecap="round" stroke-linejoin="round" stroke-dasharray="2,4" transform="translate(147.663562, 146.529895) rotate(-112.000000) translate(-147.663562, -146.529895) "></path>
                    <g id="Group-6" transform="translate(255.500000, 130.609756) scale(-1, 1) translate(-255.500000, -130.609756) translate(240.000000, 117.000000)">
                        <path d="M3.1898603e-15,13.6774237 L0,12.2438515 C-9.72542813e-16,11.2815506 0.780099052,10.5014515 1.7424,10.5014515 L6.11592092,10.5014515 C7.07822187,10.5014515 7.85832092,11.2815506 7.85832092,12.2438515 L7.85832092,25.0383122 C7.85832092,26.0006132 7.07822187,26.7807122 6.11592092,26.7807122 L1.7424,26.7807122 C0.780099052,26.7807122 2.69867443e-15,26.0006132 4.4408921e-16,25.0383122 L1.67887384e-16,17.2786563" id="Rectangle-13" stroke-linecap="round"></path>
                        <path d="M8.04425153,11.104898 C11.54683,9.40535219 14.9841204,6.13411771 18.3561228,1.29119456 L18.3561409,1.29120714 C18.8296567,0.611136183 19.7648236,0.443690192 20.4448946,0.91720605 C20.6962105,1.09219086 20.8879676,1.33988368 20.9944149,1.62702192 C21.6499049,3.3951866 21.5333093,5.35727466 20.6730281,7.03536577 L19.1444958,10.0169683 L24.9455246,9.44841213 C27.1441291,9.23292793 29.1011346,10.8405646 29.3166188,13.039169 C29.375188,13.6367549 29.2984693,14.2398596 29.092153,14.8037503 L26.7381479,21.2375719 C25.4937382,24.6387155 22.1196462,26.7796259 18.5124038,26.4569259 L8.9164188,25.5984796 C8.31738689,25.5448909 7.85832092,25.0429241 7.85832092,24.4415 L7.85832092,11.6576209 C7.85055852,11.5322918 7.85055852,11.4061568 7.85832091,11.2792162 L7.85832092,11.123121 L8.04425153,11.104898 Z" id="Combined-Shape" stroke-linejoin="round"></path>
                    </g>
                    <g id="Group-6-Copy" transform="translate(250.500000, 169.719512) scale(1, -1) translate(-250.500000, -169.719512) translate(235.000000, 156.219512)">
                        <path d="M3.1898603e-15,13.6774237 L0,12.2438515 C-9.72542813e-16,11.2815506 0.780099052,10.5014515 1.7424,10.5014515 L6.11592092,10.5014515 C7.07822187,10.5014515 7.85832092,11.2815506 7.85832092,12.2438515 L7.85832092,25.0383122 C7.85832092,26.0006132 7.07822187,26.7807122 6.11592092,26.7807122 L1.7424,26.7807122 C0.780099052,26.7807122 2.69867443e-15,26.0006132 4.4408921e-16,25.0383122 L1.67887384e-16,17.2786563" id="Rectangle-13" stroke-linecap="round"></path>
                        <path d="M8.04425153,11.104898 C11.54683,9.40535219 14.9841204,6.13411771 18.3561228,1.29119456 L18.3561409,1.29120714 C18.8296567,0.611136183 19.7648236,0.443690192 20.4448946,0.91720605 C20.6962105,1.09219086 20.8879676,1.33988368 20.9944149,1.62702192 C21.6499049,3.3951866 21.5333093,5.35727466 20.6730281,7.03536577 L19.1444958,10.0169683 L24.9455246,9.44841213 C27.1441291,9.23292793 29.1011346,10.8405646 29.3166188,13.039169 C29.375188,13.6367549 29.2984693,14.2398596 29.092153,14.8037503 L26.7381479,21.2375719 C25.4937382,24.6387155 22.1196462,26.7796259 18.5124038,26.4569259 L8.9164188,25.5984796 C8.31738689,25.5448909 7.85832092,25.0429241 7.85832092,24.4415 L7.85832092,11.6576209 C7.85055852,11.5322918 7.85055852,11.4061568 7.85832091,11.2792162 L7.85832092,11.123121 L8.04425153,11.104898 Z" id="Combined-Shape" stroke-linejoin="round"></path>
                    </g>
                </g>
            </g>
        </g>
    </g>
</svg>