<?xml version="1.0" encoding="UTF-8"?>
<svg width="126px" height="72px" viewBox="0 0 126 72" version="1.1" xmlns="http://www.w3.org/2000/svg" xmlns:xlink="http://www.w3.org/1999/xlink">
    <!-- Generator: Sketch 49.2 (51160) - http://www.bohemiancoding.com/sketch -->
    <title>Group 58</title>
    <desc>Created with Sketch.</desc>
    <defs></defs>
    <g id="Vision" stroke="none" stroke-width="1" fill="none" fill-rule="evenodd" stroke-linecap="round" stroke-linejoin="round">
        <g transform="translate(-328.000000, -6265.000000)" id="Group-58" stroke="#000000">
            <g transform="translate(388.457788, 6295.081237) rotate(-20.000000) translate(-388.457788, -6295.081237) translate(318.457788, 6275.230491)">
                <path d="M69.6961994,31.812433 L38.5223881,31.812433 C36.8655338,31.812433 35.5223881,30.4692872 35.5223881,28.812433 L35.5223881,7.96662147 C35.5223881,6.30976722 36.8655338,4.96662147 38.5223881,4.96662147 L76.9310769,4.96662147 C78.5879312,4.96662147 79.9310769,6.30976722 79.9310769,7.96662147 L79.9310769,28.812433 C79.9310769,30.4692872 78.5879312,31.812433 76.9310769,31.812433 L74.395061,31.812433" id="Path-3-Copy-71" stroke-width="1.2" transform="translate(57.726732, 18.389527) scale(-1, 1) translate(-57.726732, -18.389527) "></path>
                <path d="M35.096324,27.6333285 L33.2985075,27.6333285 C31.6416532,27.6333285 30.2985075,26.2901827 30.2985075,24.6333285 L30.2985075,3.78751699 C30.2985075,2.13066275 31.6416532,0.787516995 33.2985075,0.787516995 L71.7071963,0.787516995 C73.3640506,0.787516995 74.7071963,2.13066275 74.7071963,3.78751699 L74.7071963,4.64825387" id="Path-3-Copy-90" stroke-width="1.2" stroke-dasharray="2,4"></path>
                <path d="M36.5671642,12.5373134 L73.3637789,12.5373134" id="Path-3-Copy-106" stroke-width="2"></path>
                <path d="M0.174206233,37.816032 L59.1930358,37.816032" id="Path-3-Copy-113" stroke-width="1.2"></path>
                <path d="M64.1874659,37.816032 L85.6622692,37.816032" id="Path-3-Copy-116" stroke-width="1.2"></path>
                <polyline id="Path-3-Copy-123" stroke-width="1.2" points="136.127154 12.8156533 139.792085 15.5626631 137.039624 19.6782702"></polyline>
                <path d="M39.5967136,16.7164179 L78.9374899,16.7164179" id="Path-3-Copy-117" stroke-width="1.2"></path>
                <path d="M5.98674037,30.2985075 L22.558314,30.2985075" id="Path-3-Copy-114" stroke-width="1.2"></path>
                <polyline id="Path-3-Copy-115" stroke-width="1.2" points="87.761194 30.2985075 107.868329 30.2985075 115.737317 33.1625847 123.555088 17.8637495 139.644127 15.5419537"></polyline>
            </g>
        </g>
    </g>
</svg>