<?xml version="1.0" encoding="UTF-8"?>
<svg width="162px" height="354px" viewBox="0 0 162 354" version="1.1" xmlns="http://www.w3.org/2000/svg" xmlns:xlink="http://www.w3.org/1999/xlink">
    <!-- Generator: Sketch 49.2 (51160) - http://www.bohemiancoding.com/sketch -->
    <title>Group 54</title>
    <desc>Created with Sketch.</desc>
    <defs></defs>
    <g id="Vision" stroke="none" stroke-width="1" fill="none" fill-rule="evenodd">
        <g transform="translate(-994.000000, -4741.000000)" id="Group-54" stroke="#000000">
            <g transform="translate(995.000000, 4742.000000)">
                <g id="Group-39" transform="translate(45.176471, 275.764706)" stroke-linecap="round" stroke-width="1.2">
                    <g id="Group-16-Copy-5" transform="translate(0.654102, 0.407172)">
                        <path d="M14.5746225,10.9677706 C22.6239643,10.9677706 29.1492451,8.51255149 29.1492451,5.48388528 C29.1492451,2.45521907 22.6239643,0 14.5746225,0 C6.52528078,0 0,2.45521907 0,5.48388528 C0,6.92677781 1.48103169,8.23951604 3.90231128,9.21862325" id="Oval-Copy-3" transform="translate(14.574623, 5.483885) scale(1, -1) translate(-14.574623, -5.483885) "></path>
                        <path d="M29.1492451,13.6584767 C29.1492451,13.9400235 29.1492451,13.0612367 29.1492451,11.0221163 C29.1492451,7.96343578 22.6239643,5.48388528 14.5746225,5.48388528 C6.52528078,5.48388528 0,7.96343578 0,11.0221163 C0,11.9935775 0,12.8723643 0,13.6584767" id="Oval-Copy-13" transform="translate(14.574623, 9.596799) scale(1, -1) translate(-14.574623, -9.596799) "></path>
                    </g>
                    <g id="Group-16-Copy-4" transform="translate(0.654102, 10.689457)">
                        <path d="M28.1070321,7.71171367 C28.7793403,7.1204429 29.1492451,6.47488549 29.1492451,5.79885225 C29.1492451,2.95947768 22.6239643,0.657709805 14.5746225,0.657709805 C6.52528078,0.657709805 0,2.95947768 0,5.79885225 C0,6.46004009 0.353837237,7.09207588 0.99836039,7.67268324" id="Oval-Copy-3" transform="translate(14.574623, 4.184712) scale(1, -1) translate(-14.574623, -4.184712) "></path>
                        <path d="M29.1492451,10.2342507 C29.1492451,10.4982008 29.1492451,9.67433817 29.1492451,7.76266283 C29.1492451,4.89514982 22.6239643,2.57057122 14.5746225,2.57057122 C6.52528078,2.57057122 0,4.89514982 0,7.76266283 C0,8.67340766 0,9.49727027 0,10.2342507" id="Oval-Copy-13" transform="translate(14.574623, 6.426428) scale(1, -1) translate(-14.574623, -6.426428) "></path>
                    </g>
                    <g id="Group-16-Copy-8" transform="translate(0.654102, 17.544313)">
                        <path d="M28.1070321,7.71171367 C28.7793403,7.1204429 29.1492451,6.47488549 29.1492451,5.79885225 C29.1492451,2.95947768 22.6239643,0.657709805 14.5746225,0.657709805 C6.52528078,0.657709805 0,2.95947768 0,5.79885225 C0,6.46004009 0.353837237,7.09207588 0.99836039,7.67268324" id="Oval-Copy-3" transform="translate(14.574623, 4.184712) scale(1, -1) translate(-14.574623, -4.184712) "></path>
                        <path d="M29.1492451,10.2342507 C29.1492451,10.4982008 29.1492451,9.67433817 29.1492451,7.76266283 C29.1492451,4.89514982 22.6239643,2.57057122 14.5746225,2.57057122 C6.52528078,2.57057122 0,4.89514982 0,7.76266283 C0,8.67340766 0,9.49727027 0,10.2342507" id="Oval-Copy-13" transform="translate(14.574623, 6.426428) scale(1, -1) translate(-14.574623, -6.426428) "></path>
                    </g>
                </g>
                <g id="Group-21-Copy" transform="translate(93.849412, 262.369198) scale(-1, 1) translate(-93.849412, -262.369198) translate(77.176471, 238.117647)" stroke-linecap="round" stroke-width="1.2">
                    <g id="Group-16" transform="translate(1.692161, 0.000000)">
                        <path d="M14.3833726,10.8238501 C22.3270899,10.8238501 28.7667452,8.40084875 28.7667452,5.41192507 C28.7667452,2.42300139 22.3270899,0 14.3833726,0 C6.43965525,0 0,2.42300139 0,5.41192507 C0,6.83588379 1.46159741,8.1313961 3.85110467,9.09765535" id="Oval-Copy-3" transform="translate(14.383373, 5.411925) scale(1, -1) translate(-14.383373, -5.411925) "></path>
                        <path d="M28.7667452,13.4792485 C28.7667452,13.7571008 28.7667452,12.8898456 28.7667452,10.8774828 C28.7667452,7.8589386 22.3270899,5.41192507 14.3833726,5.41192507 C6.43965525,5.41192507 0,7.8589386 0,10.8774828 C0,11.8361963 0,12.7034515 0,13.4792485" id="Oval-Copy-13" transform="translate(14.383373, 9.470869) scale(1, -1) translate(-14.383373, -9.470869) "></path>
                    </g>
                    <g id="Group-16-Copy" transform="translate(0.000000, 9.865488)">
                        <path d="M28.2618971,6.67285858 C28.5910482,6.24680898 28.7667452,5.7984379 28.7667452,5.33559145 C28.7667452,2.5334755 22.3270899,0.2619117 14.3833726,0.2619117 C6.43965525,0.2619117 0,2.5334755 0,5.33559145 C0,5.9881031 0.349194141,6.61184524 0.985259783,7.1848338 C1.14206242,7.3260867 1.63907079,7.56193901 2.47628489,7.89239072" id="Oval-Copy-3" transform="translate(14.383373, 4.077151) scale(1, -1) translate(-14.383373, -4.077151) "></path>
                        <path d="M28.7667452,10.3818267 C28.7667452,10.6423132 28.7667452,9.82926143 28.7667452,7.94267132 C28.7667452,5.11278616 22.3270899,2.81871097 14.3833726,2.81871097 C6.43965525,2.81871097 0,5.11278616 0,7.94267132 C0,8.84146524 0,9.65451703 0,10.3818267" id="Oval-Copy-13" transform="translate(14.383373, 6.623971) scale(1, -1) translate(-14.383373, -6.623971) "></path>
                    </g>
                    <g id="Group-16-Copy-2" transform="translate(1.692161, 16.630395)">
                        <path d="M26.4196666,7.89239072 C27.1242287,7.55479883 27.5637425,7.30928476 27.7382082,7.15584851 C28.4016943,6.57233646 28.7667452,5.93525013 28.7667452,5.26808789 C28.7667452,2.46597194 22.3270899,0.194408138 14.3833726,0.194408138 C6.43965525,0.194408138 0,2.46597194 0,5.26808789 C0,5.66217592 0.127372863,6.04576992 0.368388896,6.4140268" id="Oval-Copy-3" transform="translate(14.383373, 4.043399) scale(1, -1) translate(-14.383373, -4.043399) "></path>
                        <path d="M28.7667452,10.3818267 C28.7667452,10.6423132 28.7667452,9.82926143 28.7667452,7.94267132 C28.7667452,5.11278616 22.3270899,2.81871097 14.3833726,2.81871097 C6.43965525,2.81871097 0,5.11278616 0,7.94267132 C0,8.84146524 0,9.65451703 0,10.3818267" id="Oval-Copy-13" transform="translate(14.383373, 6.623971) scale(1, -1) translate(-14.383373, -6.623971) "></path>
                    </g>
                    <g id="Group-16-Copy-6" transform="translate(3.384323, 23.395301)">
                        <path d="M26.4196666,7.89239072 C27.1242287,7.55479883 27.5637425,7.30928476 27.7382082,7.15584851 C28.4016943,6.57233646 28.7667452,5.93525013 28.7667452,5.26808789 C28.7667452,2.46597194 22.3270899,0.194408138 14.3833726,0.194408138 C6.43965525,0.194408138 0,2.46597194 0,5.26808789 C0,5.66217592 0.127372863,6.04576992 0.368388896,6.4140268" id="Oval-Copy-3" transform="translate(14.383373, 4.043399) scale(1, -1) translate(-14.383373, -4.043399) "></path>
                        <path d="M28.7667452,10.3818267 C28.7667452,10.6423132 28.7667452,9.82926143 28.7667452,7.94267132 C28.7667452,5.11278616 22.3270899,2.81871097 14.3833726,2.81871097 C6.43965525,2.81871097 0,5.11278616 0,7.94267132 C0,8.84146524 0,9.65451703 0,10.3818267" id="Oval-Copy-13" transform="translate(14.383373, 6.623971) scale(1, -1) translate(-14.383373, -6.623971) "></path>
                    </g>
                    <g id="Group-16-Copy-7" transform="translate(15.806928, 42.482761) scale(-1, 1) translate(-15.806928, -42.482761) translate(1.154949, 36.925114)">
                        <path d="M26.4196666,7.89239072 C27.1242287,7.55479883 27.5637425,7.30928476 27.7382082,7.15584851 C28.4016943,6.57233646 28.7667452,5.93525013 28.7667452,5.26808789 C28.7667452,2.46597194 22.3270899,0.194408138 14.3833726,0.194408138 C6.43965525,0.194408138 0,2.46597194 0,5.26808789 C0,5.66217592 0.127372863,6.04576992 0.368388896,6.4140268" id="Oval-Copy-3" transform="translate(14.383373, 4.043399) scale(1, -1) translate(-14.383373, -4.043399) "></path>
                        <path d="M28.7667452,10.3818267 C28.7667452,10.6423132 28.7667452,9.82926143 28.7667452,7.94267132 C28.7667452,5.11278616 22.3270899,2.81871097 14.3833726,2.81871097 C6.43965525,2.81871097 0,5.11278616 0,7.94267132 C0,8.84146524 0,9.65451703 0,10.3818267" id="Oval-Copy-13" transform="translate(14.383373, 6.623971) scale(1, -1) translate(-14.383373, -6.623971) "></path>
                    </g>
                    <g id="Group-16-Copy-4" transform="translate(3.384323, 30.442079)">
                        <path d="M27.7382082,7.61051963 C28.4016943,7.02700758 28.7667452,6.38992125 28.7667452,5.72275901 C28.7667452,2.92064306 22.3270899,0.649079257 14.3833726,0.649079257 C6.43965525,0.649079257 0,2.92064306 0,5.72275901 C0,6.37527065 0.349194141,6.9990128 0.985259783,7.57200136" id="Oval-Copy-3" transform="translate(14.383373, 4.129799) scale(1, -1) translate(-14.383373, -4.129799) "></path>
                        <path d="M28.7667452,10.0999556 C28.7667452,10.3604421 28.7667452,9.54739033 28.7667452,7.66080022 C28.7667452,4.83091506 22.3270899,2.53683988 14.3833726,2.53683988 C6.43965525,2.53683988 0,4.83091506 0,7.66080022 C0,8.55959414 0,9.37264593 0,10.0999556" id="Oval-Copy-13" transform="translate(14.383373, 6.342100) scale(1, -1) translate(-14.383373, -6.342100) "></path>
                    </g>
                </g>
                <polyline id="Path-26" stroke-linecap="round" stroke-linejoin="round" transform="translate(91.914477, 167.854496) scale(-1, 1) rotate(30.000000) translate(-91.914477, -167.854496) " points="88.9134863 173.155631 94.9154669 167.854496 88.9134863 162.553361"></polyline>
                <polyline id="Path-26-Copy-2" stroke-linecap="round" stroke-linejoin="round" transform="translate(67.443888, 183.854496) scale(1, -1) rotate(30.000000) translate(-67.443888, -183.854496) " points="64.442898 189.155631 70.4448787 183.854496 64.442898 178.553361"></polyline>
                <path d="M80,176 C133.333333,141.455187 160,109.455187 160,80 C160,35.81722 124.18278,0 80,0 C35.81722,0 0,35.81722 0,80 C0,107.54479 23.3197608,137.314996 69.9592825,169.310618" id="Oval-2" stroke-width="1.2" stroke-linecap="round" stroke-linejoin="round" stroke-dasharray="2,4" transform="translate(80.000000, 88.000000) scale(-1, 1) translate(-80.000000, -88.000000) "></path>
                <g id="Group-21-Copy-4" transform="translate(81.882353, 81.906011) scale(-1, 1) rotate(10.000000) translate(-81.882353, -81.906011) translate(57.411765, 56.619736)" stroke-width="1.2">
                    <path d="M20.7809487,17.2559855 C16.5754363,24.4345085 14.5804691,31.059814 14.7960471,37.1319019 C15.0116251,43.2039898 18.8134609,46.4941783 26.2015545,47.0024674 C42.6926899,46.8994984 50.149095,42.7888356 48.57077,34.6704791 C46.992445,26.5521227 42.7886743,20.7472915 35.9594579,17.2559855 L41.4328939,5.40471228 L35.3609901,8.51401983 C34.6116317,8.89775219 33.7159971,8.86077798 33.0008176,8.41658553 L31.5399566,7.50925607 C30.7622886,7.02625255 29.777579,7.02772096 29.0013551,7.51304166 L25.4150807,9.7552981 C24.7123288,10.1946817 23.832607,10.2403815 23.0881104,9.87617945 L16.4947397,6.65075331 L20.7809487,17.2559855 Z" id="Path-6" stroke-linecap="round" stroke-linejoin="round"></path>
                    <g id="Group" transform="translate(33.524331, 34.885753) scale(-1, 1) rotate(10.000000) translate(-33.524331, -34.885753) translate(25.367469, 27.570795)">
                        <ellipse id="Oval-Copy-3" cx="6.3993808" cy="6.37652587" rx="6.3993808" ry="6.37652587"></ellipse>
                        <path d="M8.89890924,4.81242117 L9.4325333,5.31206353 C10.9420804,6.72548125 11.031889,9.0908893 9.63386104,10.6147003 L9.39925862,10.8704103 C8.10641386,12.2795746 8.11313016,14.4455576 9.41468908,15.8466771" id="Path-9" stroke-linecap="square" transform="translate(9.530155, 10.329549) rotate(110.000000) translate(-9.530155, -10.329549) "></path>
                    </g>
                    <path d="M17.772926,5.48989093 C15.0446662,7.13216548 12.4988354,7.52059405 10.1354337,6.65517662 C7.77203195,5.78975919 5.97432426,7.11830082 4.7423106,10.6408015 L10.9353459,20.5553599 C7.72247038,25.269779 5.6323135,31.4224283 4.66487519,39.0133077 C3.69743689,46.6041871 8.64959961,49.7209094 19.5213633,48.3634748" id="Path-6-Copy" stroke-linecap="round" stroke-linejoin="round" transform="translate(12.033829, 27.081122) rotate(-10.000000) translate(-12.033829, -27.081122) "></path>
                    <path d="M21.0363912,17.3716811 C25.3614971,20.2390024 29.2757663,20.9214133 32.7791988,19.4189138" id="Path-7" stroke-linecap="round" stroke-linejoin="round"></path>
                    <path d="M9.96783794,20.7796525 C11.3873349,21.6367875 13.1214577,21.7253366 15.1702064,21.0452998" id="Path-7-Copy-3" stroke-linecap="round" stroke-linejoin="round"></path>
                    <path d="M2.28739855,12.3386075 C3.14803842,12.9011706 5.16200043,13.1719521 8.32928457,13.1509521 L8.32928448,13.1509382 C8.53330097,13.1495855 8.73665733,13.1742525 8.93443385,13.2243425 L11.9279645,13.982501 C12.6832723,14.1737945 13.4844385,13.9865218 14.0766871,13.4802367 L17.771533,10.3216891" id="Path-7-Copy-2" stroke-linecap="round" stroke-linejoin="round"></path>
                    <path d="M16.4199522,6.45075074 C16.0732229,3.28973229 18.0194744,2.20542572 22.2587069,3.19783104 C28.6175557,4.68643901 29.8459039,-0.9374849 35.1698717,2.05343211" id="Path-7-Copy" stroke-linecap="round" stroke-linejoin="round"></path>
                </g>
                <path d="M80,352 C133.333333,317.455187 160,285.455187 160,256 C160,211.81722 124.18278,176 80,176 C35.81722,176 0,211.81722 0,256 C0,283.464841 23.1845869,313.142199 69.5537607,345.032074" id="Oval-2-Copy" stroke-width="1.2" stroke-linecap="round" stroke-linejoin="round" transform="translate(80.000000, 264.000000) scale(1, -1) translate(-80.000000, -264.000000) "></path>
            </g>
        </g>
    </g>
</svg>